<svg width="13" height="10" viewBox="0 0 13 10" fill="none" xmlns="http://www.w3.org/2000/svg">
<path d="M7 0.715263C6.99961 0.882092 7.06929 1.04377 7.19693 1.17223L11.0328 4.9993L7.33393 8.83351C7.26281 8.90654 7.20969 8.99058 7.17764 9.08079C7.14559 9.17099 7.13524 9.26559 7.14717 9.35915C7.15911 9.4527 7.1931 9.54337 7.24719 9.62593C7.30128 9.7085 7.37441 9.78134 7.46236 9.84026C7.54995 9.89957 7.65072 9.94386 7.75889 9.97058C7.86707 9.99731 7.98051 10.0059 8.0927 9.99599C8.20489 9.98604 8.31362 9.9577 8.41263 9.91259C8.51164 9.86748 8.59899 9.8065 8.66964 9.73316L12.8052 5.44912C12.9312 5.32136 13 5.16111 13 4.99573C13 4.83035 12.9312 4.67009 12.8052 4.54233L8.52409 0.2583C8.45221 0.186001 8.36393 0.126236 8.26431 0.0824308C8.16469 0.0386248 8.05569 0.0116377 7.94354 0.00301552C7.83139 -0.00560665 7.71831 0.00430584 7.61076 0.0321836C7.50322 0.0600615 7.40333 0.105357 7.31681 0.165478C7.21859 0.231919 7.13923 0.315681 7.08446 0.410741C7.02968 0.505801 7.00084 0.6098 7 0.715263Z" fill="#FF3560"/>
<line x1="0.75" y1="5.05005" x2="10.25" y2="5.05005" stroke="#FF3560" stroke-width="1.5" stroke-linecap="round"/>
</svg>
