<svg width="12" height="10" viewBox="0 0 12 10" fill="none" xmlns="http://www.w3.org/2000/svg">
<path d="M6 0.715263C6.00039 0.882092 5.93071 1.04377 5.80307 1.17223L1.96717 4.9993L5.66607 8.83351C5.73719 8.90654 5.79031 8.99058 5.82236 9.08079C5.85441 9.17099 5.86476 9.26559 5.85283 9.35915C5.84089 9.4527 5.8069 9.54337 5.75281 9.62593C5.69872 9.7085 5.62559 9.78134 5.53764 9.84026C5.45005 9.89957 5.34928 9.94386 5.24111 9.97058C5.13293 9.99731 5.01949 10.0059 4.9073 9.99599C4.79511 9.98604 4.68638 9.9577 4.58737 9.91259C4.48836 9.86748 4.40101 9.8065 4.33036 9.73316L0.194781 5.44912C0.068846 5.32136 0 5.16111 0 4.99573C0 4.83035 0.068846 4.67009 0.194781 4.54233L4.47591 0.2583C4.54779 0.186001 4.63607 0.126236 4.73569 0.0824308C4.83531 0.0386248 4.94431 0.0116377 5.05646 0.00301552C5.16861 -0.00560665 5.28169 0.00430584 5.38924 0.0321836C5.49678 0.0600615 5.59667 0.105357 5.68319 0.165478C5.78141 0.231919 5.86077 0.315681 5.91554 0.410741C5.97032 0.505801 5.99916 0.6098 6 0.715263Z" fill="white"/>
<line x1="0.75" y1="-0.75" x2="10.25" y2="-0.75" transform="matrix(-1 0 0 1 12 5.80005)" stroke="white" stroke-width="1.5" stroke-linecap="round"/>
</svg>
