<svg width="12" height="10" viewBox="0 0 12 10" fill="none" xmlns="http://www.w3.org/2000/svg">
<path d="M6 0.715263C5.99961 0.882092 6.06929 1.04377 6.19693 1.17223L10.0328 4.9993L6.33393 8.83351C6.26281 8.90654 6.20969 8.99058 6.17764 9.08079C6.14559 9.17099 6.13524 9.26559 6.14717 9.35915C6.15911 9.4527 6.1931 9.54337 6.24719 9.62593C6.30128 9.7085 6.37441 9.78134 6.46236 9.84026C6.54995 9.89957 6.65072 9.94386 6.75889 9.97058C6.86707 9.99731 6.98051 10.0059 7.0927 9.99599C7.20489 9.98604 7.31362 9.9577 7.41263 9.91259C7.51164 9.86748 7.59899 9.8065 7.66964 9.73316L11.8052 5.44912C11.9312 5.32136 12 5.16111 12 4.99573C12 4.83035 11.9312 4.67009 11.8052 4.54233L7.52409 0.2583C7.45221 0.186001 7.36393 0.126236 7.26431 0.0824308C7.16469 0.0386248 7.05569 0.0116377 6.94354 0.00301552C6.83139 -0.00560665 6.71831 0.00430584 6.61076 0.0321836C6.50322 0.0600615 6.40333 0.105357 6.31681 0.165478C6.21859 0.231919 6.13923 0.315681 6.08446 0.410741C6.02968 0.505801 6.00084 0.6098 6 0.715263Z" fill="white"/>
<line x1="0.75" y1="5.05005" x2="10.25" y2="5.05005" stroke="white" stroke-width="1.5" stroke-linecap="round"/>
</svg>
