<svg width="10" height="12" viewBox="0 0 10 12" fill="none" xmlns="http://www.w3.org/2000/svg">
<path d="M0.715263 6C0.882092 6.00039 1.04377 5.93071 1.17223 5.80307L4.9993 1.96717L8.83351 5.66607C8.90654 5.73719 8.99058 5.79031 9.08079 5.82236C9.17099 5.85441 9.26559 5.86476 9.35915 5.85283C9.4527 5.84089 9.54337 5.8069 9.62593 5.75281C9.7085 5.69872 9.78134 5.62559 9.84026 5.53764C9.89957 5.45005 9.94386 5.34928 9.97058 5.24111C9.99731 5.13293 10.0059 5.01949 9.99599 4.9073C9.98604 4.79511 9.9577 4.68638 9.91259 4.58737C9.86748 4.48836 9.8065 4.40101 9.73316 4.33036L5.44912 0.194781C5.32136 0.068846 5.16111 0 4.99573 0C4.83035 0 4.67009 0.068846 4.54233 0.194781L0.2583 4.47591C0.186001 4.54779 0.126236 4.63607 0.0824308 4.73569C0.0386248 4.83531 0.0116377 4.94431 0.00301552 5.05646C-0.00560665 5.16861 0.00430584 5.28169 0.0321836 5.38924C0.0600615 5.49678 0.105357 5.59667 0.165478 5.68319C0.231919 5.78141 0.315681 5.86077 0.410741 5.91554C0.505801 5.97032 0.6098 5.99916 0.715263 6Z" fill="white"/>
<line x1="5.0498" y1="11.25" x2="5.0498" y2="1.75" stroke="white" stroke-width="1.5" stroke-linecap="round"/>
</svg>
