<svg width="5" height="9" viewBox="0 0 5 9" fill="none" xmlns="http://www.w3.org/2000/svg">
<path d="M1.90735e-06 0.607974C-0.000324249 0.749778 0.0577388 0.887202 0.164112 0.996392L3.36069 4.2494L0.278275 7.50848C0.219006 7.57056 0.174746 7.64199 0.148037 7.71867C0.121329 7.79534 0.1127 7.87575 0.122645 7.95528C0.132591 8.0348 0.160916 8.11186 0.205992 8.18204C0.251068 8.25222 0.312006 8.31414 0.385303 8.36422C0.458288 8.41463 0.542267 8.45228 0.632413 8.475C0.722559 8.49771 0.817094 8.50505 0.910586 8.49659C1.00408 8.48813 1.09468 8.46404 1.17719 8.4257C1.2597 8.38736 1.33249 8.33553 1.39137 8.27318L4.83768 4.63175C4.94263 4.52316 5 4.38694 5 4.24637C5 4.10579 4.94263 3.96958 4.83768 3.86098L1.27007 0.219555C1.21017 0.1581 1.13661 0.107302 1.05359 0.0700665C0.970575 0.0328312 0.879737 0.00989246 0.786283 0.00256348C0.692828 -0.00476551 0.598591 0.0036602 0.508971 0.0273561C0.41935 0.0510521 0.336105 0.0895538 0.264005 0.140656C0.182155 0.197131 0.116029 0.268329 0.0703816 0.34913C0.0247345 0.429931 0.000698566 0.51833 1.90735e-06 0.607974Z" fill="#1B1B1B"/>
</svg>
