<svg width="10" height="6" viewBox="0 0 10 6" fill="none" xmlns="http://www.w3.org/2000/svg">
<path d="M9.28474 1.43051e-06C9.11791 -0.000389448 8.95623 0.0692865 8.82777 0.196934L5.0007 4.03283L1.16649 0.33393C1.09346 0.262807 1.00942 0.209694 0.919213 0.177644C0.829006 0.145594 0.734407 0.135239 0.640852 0.147174C0.547297 0.159109 0.456631 0.193098 0.374066 0.24719C0.291501 0.301281 0.218664 0.374406 0.159742 0.462364C0.100432 0.549945 0.0561417 0.65072 0.0294153 0.758895C0.00268879 0.86707 -0.00594628 0.980513 0.00400639 1.0927C0.0139591 1.20489 0.0423032 1.31362 0.0874096 1.41263C0.132516 1.51164 0.193496 1.59899 0.266843 1.66964L4.55088 5.80522C4.67864 5.93115 4.83889 6 5.00427 6C5.16965 6 5.32991 5.93115 5.45767 5.80522L9.7417 1.52409C9.814 1.45221 9.87376 1.36393 9.91757 1.26431C9.96137 1.16469 9.98836 1.05568 9.99698 0.943539C10.0056 0.831393 9.99569 0.71831 9.96782 0.610765C9.93994 0.503219 9.89464 0.403326 9.83452 0.316805C9.76808 0.218585 9.68432 0.139235 9.58926 0.0844579C9.4942 0.029681 9.3902 0.000837779 9.28474 1.43051e-06Z" fill="#1B1B1B"/>
</svg>
