<svg width="15" height="15" viewBox="0 0 15 15" fill="none" xmlns="http://www.w3.org/2000/svg">
<path d="M11.5035 4.39619C12.0006 4.39619 12.4035 3.99325 12.4035 3.49619C12.4035 2.99913 12.0006 2.59619 11.5035 2.59619C11.0065 2.59619 10.6035 2.99913 10.6035 3.49619C10.6035 3.99325 11.0065 4.39619 11.5035 4.39619Z" fill="white"/>
<path d="M7.49969 3.64893C6.73798 3.64893 5.99338 3.8748 5.36005 4.29798C4.72671 4.72116 4.23309 5.32264 3.9416 6.02637C3.65011 6.73009 3.57384 7.50445 3.72244 8.25152C3.87104 8.99859 4.23784 9.68481 4.77644 10.2234C5.31505 10.762 6.00128 11.1288 6.74835 11.2774C7.49542 11.426 8.26977 11.3498 8.9735 11.0583C9.67722 10.7668 10.2787 10.2731 10.7019 9.63981C11.1251 9.00648 11.3509 8.26188 11.3509 7.50018C11.3509 6.47876 10.9452 5.49918 10.2229 4.77693C9.50068 4.05468 8.5211 3.64893 7.49969 3.64893ZM7.49969 10.0002C7.00524 10.0002 6.52189 9.85355 6.11076 9.57885C5.69964 9.30415 5.37921 8.9137 5.18999 8.45688C5.00077 8.00007 4.95126 7.4974 5.04773 7.01245C5.14419 6.5275 5.38229 6.08204 5.73192 5.73241C6.08155 5.38278 6.52701 5.14468 7.01196 5.04821C7.49692 4.95175 7.99958 5.00126 8.4564 5.19048C8.91321 5.3797 9.30366 5.70013 9.57836 6.11125C9.85307 6.52237 9.99969 7.00572 9.99969 7.50018C9.99969 8.16322 9.7363 8.7991 9.26746 9.26794C8.79861 9.73678 8.16273 10.0002 7.49969 10.0002Z" fill="white"/>
<path d="M7.5 1.35125C9.5025 1.35125 9.74 1.35875 10.5306 1.395C11.0062 1.40065 11.4772 1.48796 11.9231 1.65312C12.2467 1.77793 12.5405 1.96909 12.7857 2.2143C13.0309 2.45951 13.2221 2.75334 13.3469 3.07688C13.512 3.52283 13.5994 3.99385 13.605 4.46938C13.6412 5.26 13.6487 5.4975 13.6487 7.50062C13.6487 9.50375 13.6412 9.74 13.605 10.5306C13.5994 11.0062 13.512 11.4772 13.3469 11.9231C13.2221 12.2467 13.0309 12.5405 12.7857 12.7857C12.5405 13.0309 12.2467 13.2221 11.9231 13.3469C11.4772 13.512 11.0062 13.5994 10.5306 13.605C9.74 13.6412 9.5025 13.6487 7.5 13.6487C5.4975 13.6487 5.26 13.6412 4.46938 13.605C3.99385 13.5994 3.52283 13.512 3.07688 13.3469C2.75334 13.2221 2.45951 13.0309 2.2143 12.7857C1.96909 12.5405 1.77793 12.2467 1.65312 11.9231C1.48796 11.4772 1.40065 11.0062 1.395 10.5306C1.35875 9.74 1.35125 9.5025 1.35125 7.5C1.35125 5.4975 1.35875 5.26 1.395 4.46938C1.40065 3.99385 1.48796 3.52283 1.65312 3.07688C1.77793 2.75334 1.96909 2.45951 2.2143 2.2143C2.45951 1.96909 2.75334 1.77793 3.07688 1.65312C3.52283 1.48796 3.99385 1.40065 4.46938 1.395C5.26 1.35875 5.4975 1.35125 7.5 1.35125V1.35125ZM7.5 0C5.46312 0 5.2075 0.00875002 4.4075 0.045C3.78548 0.0575601 3.1701 0.175481 2.5875 0.39375C2.0892 0.586436 1.63666 0.881111 1.25889 1.25889C0.881111 1.63666 0.586436 2.0892 0.39375 2.5875C0.175412 3.1703 0.0574896 3.7859 0.045 4.40813C0.00875002 5.20813 0 5.4625 0 7.5C0 9.5375 0.00875002 9.7925 0.045 10.5925C0.0575601 11.2145 0.175481 11.8299 0.39375 12.4125C0.586436 12.9108 0.881111 13.3633 1.25889 13.7411C1.63666 14.1189 2.0892 14.4136 2.5875 14.6063C3.1703 14.8246 3.7859 14.9425 4.40813 14.955C5.20813 14.9912 5.46312 15 7.5 15C9.53688 15 9.7925 14.9912 10.5925 14.955C11.2147 14.9425 11.8303 14.8246 12.4131 14.6063C12.9114 14.4136 13.364 14.1189 13.7417 13.7411C14.1195 13.3633 14.4142 12.9108 14.6069 12.4125C14.825 11.8297 14.9427 11.2141 14.955 10.5919C14.9912 9.79188 15 9.5375 15 7.5C15 5.4625 14.9912 5.2075 14.955 4.4075C14.9424 3.78548 14.8245 3.1701 14.6063 2.5875C14.4136 2.0892 14.1189 1.63666 13.7411 1.25889C13.3633 0.881111 12.9108 0.586436 12.4125 0.39375C11.8297 0.175625 11.2141 0.0579145 10.5919 0.045625C9.79188 0.00812497 9.5375 0 7.5 0Z" fill="white"/>
</svg>
