<svg width="78" height="322" viewBox="0 0 78 322" fill="none" xmlns="http://www.w3.org/2000/svg">
<path d="M35.0588 312.888C17.9844 314.543 0.528805 300.521 0.027149 283.055C-0.195332 277.751 0.952582 272.478 3.36017 267.747C0.197734 277.603 0.719456 289.248 7.37342 297.579C14.0274 305.74 24.7387 311.551 35.4662 309.976C38.8895 312.225 40.6051 316.339 44.2692 318.227C46.7695 319.351 49.1975 317.826 51.3165 316.612C55.6127 319.162 59.9891 316.13 64.2251 315.077C67.8992 314.324 72.5365 316.371 75.3378 313.07C76.6434 311.651 77.5176 309.889 77.8581 307.991C77.7277 309.215 77.6072 310.452 77.5069 311.676C76.2869 313.839 74.3547 315.512 72.0394 316.411C69.7242 317.309 67.169 317.378 64.809 316.604C60.6232 318.46 56.1966 320.659 51.489 319.485C49.1395 320.896 46.336 321.345 43.6632 320.739C39.7563 319.493 37.7677 315.639 35.0588 312.888Z" fill="white" fill-opacity="0.8"/>
<path d="M12.1216 265.108C11.9308 262.405 11.9308 259.691 12.1216 256.987C19.8411 253.514 27.4803 249.84 35.3783 246.78C27.5084 243.738 19.8089 240.316 12.1416 236.813C12.1216 234.052 12.1115 231.282 12.1316 228.511C25.0195 228.522 37.908 228.525 50.7972 228.521C50.7865 231.442 50.7732 234.356 50.7571 237.264C44.6851 237.304 38.601 237.124 32.5289 237.314C36.8151 239.544 41.3721 241.199 45.6583 243.437C45.6783 245.626 45.7084 247.813 45.7285 250.002C41.3521 252.171 36.795 253.937 32.4848 256.255C38.5869 256.355 44.6911 256.215 50.7932 256.255C50.7731 259.167 50.7732 262.074 50.7431 264.988C37.8686 265.178 24.9901 264.998 12.1216 265.108Z" fill="white" fill-opacity="0.8"/>
<path d="M12.0641 221.423C12.0641 221.423 11.6928 203.115 12.1844 193.97C14.7148 193.99 17.2532 193.99 19.8096 193.99C19.8297 200.323 19.8096 206.648 19.8297 212.981H27.6094C27.6094 207.601 27.5492 202.222 27.6094 196.84C30.0294 196.86 32.4473 196.85 34.8673 196.84C34.8673 202.159 34.9075 207.475 34.8673 212.78C37.5482 212.941 40.2371 212.981 42.9279 213.051C43.1788 206.739 42.637 200.394 43.1688 194.091C45.7091 193.92 48.2475 194.011 50.7939 193.99C50.7237 203.155 50.7638 212.319 50.7939 221.481C37.8773 221.413 24.9787 221.433 12.0641 221.423Z" fill="white" fill-opacity="0.8"/>
<path d="M12.1619 182.849C12.1619 182.849 11.7405 165.113 12.1619 156.259C22.5101 156.229 32.8602 156.32 43.2084 156.219C43.2585 154.905 43.3087 153.589 43.3689 152.264C48.8189 152.314 54.2589 152.264 59.7109 152.294C59.741 154.702 59.8413 157.11 59.6808 159.492C56.713 159.74 53.7324 159.797 50.7573 159.663C50.7072 167.934 50.8075 176.195 50.7373 184.456C53.7291 184.386 56.719 184.376 59.7109 184.376C59.741 186.846 59.751 189.315 59.761 191.775C54.4314 191.835 49.0918 191.664 43.7602 191.755C42.9375 189.748 43.2887 186.706 40.8486 185.833C39.0944 184.919 37.1848 184.34 35.218 184.127C27.5487 183.405 19.8566 182.98 12.1418 182.853L12.1619 182.849ZM19.8513 175.334C27.6771 176.207 35.7819 175.354 43.2686 178.246C43.2184 173.809 43.2385 169.373 43.2485 164.936C35.4488 164.856 27.649 164.906 19.8513 164.876C19.8513 168.363 19.8513 171.847 19.8714 175.33L19.8513 175.334Z" fill="white" fill-opacity="0.8"/>
<path d="M12.0406 146.873C12.0406 146.873 11.9102 141.022 12.1209 138.09C20.1915 138.151 28.2622 138.09 36.3328 138.201C28.1919 132.971 20.0611 127.712 12.141 122.148C12.0105 119.758 11.9202 117.36 11.9403 114.95C24.879 114.97 37.8257 115.01 50.7665 114.95C50.7665 117.85 50.7564 120.748 50.7364 123.643C42.9868 123.663 35.2272 123.572 27.4796 123.703C35.4298 128.571 43.1593 133.79 50.7564 139.202C50.7658 141.772 50.7524 144.335 50.7163 146.891C37.8351 146.846 24.9432 146.84 12.0406 146.873Z" fill="white" fill-opacity="0.8"/>
<path d="M11.8503 107.465C11.8503 107.465 11.8201 101.734 11.8302 98.8528C17.0895 98.8026 22.3589 98.8227 27.6303 98.8327C27.5701 95.5599 28.0317 91.344 24.799 89.3072C20.7383 87.5125 16.5301 86.0718 12.2215 85.001C12.172 82.1704 12.182 79.3296 12.2516 76.4789C18.4841 78.9691 25.9528 79.3504 30.7908 84.5054C32.0368 82.8359 33.6741 81.4985 35.5585 80.6106C40.5169 78.7143 45.706 77.4782 50.7647 75.8629C50.7747 78.8146 50.7547 81.7643 50.7446 84.7061C45.997 86.3114 40.7376 86.9354 36.5518 89.8551C34.5953 92.3754 34.8762 95.7666 34.7458 98.7584C40.0955 98.8688 45.4451 98.8086 50.7988 98.8086C50.7787 101.7 50.762 104.584 50.7487 107.461C37.7778 107.545 24.8151 107.501 11.8503 107.465Z" fill="white" fill-opacity="0.8"/>
<path d="M11.9899 60.0863C11.7538 57.3684 12.0851 54.631 12.9629 52.0479C13.8406 49.4648 15.2456 47.0922 17.0887 45.0808C19.2788 42.6839 22.0351 40.8748 25.1055 39.8192C28.1758 38.7635 31.4619 38.4952 34.6629 39.0385C37.8638 39.5819 40.8773 40.9197 43.4272 42.9294C45.9772 44.9391 47.9822 47.5565 49.2586 50.5418C50.535 53.5271 51.042 56.7849 50.7332 60.0169C50.4243 63.2489 49.3095 66.3518 47.4908 69.0414C45.6721 71.7309 43.2077 73.9211 40.3232 75.4115C37.4388 76.9019 34.2265 77.6447 30.9806 77.572C26.236 77.4464 21.6976 75.6056 18.206 72.3907C14.7143 69.1758 12.506 64.8045 11.9899 60.0863ZM19.1876 60.9191C19.7326 63.2679 20.9442 65.4092 22.6768 67.086C24.4094 68.7628 26.5894 69.9035 28.9548 70.3712C31.3201 70.8389 33.7702 70.6135 36.0106 69.7223C38.251 68.831 40.1863 67.3118 41.5841 65.3472C42.9818 63.3825 43.7825 61.056 43.8899 58.6473C43.9973 56.2385 43.4069 53.85 42.1895 51.7688C40.9722 49.6875 39.1797 48.0021 37.0275 46.915C34.8754 45.8279 32.4551 45.3854 30.0575 45.6406C22.946 46.3851 17.2191 53.8819 19.1876 60.9271V60.9191Z" fill="white" fill-opacity="0.8"/>
<path d="M12.0714 36.1853C11.8958 33.4934 11.926 30.7919 12.1617 28.1046C19.8712 24.6934 27.5104 21.0975 35.3382 17.9371C27.4682 14.9653 19.8872 11.3433 12.1316 8.07046C12.1116 5.38961 12.1116 2.7008 12.0514 0.00991821C24.96 0.0299835 37.8686 -0.0101318 50.7672 0.0300026C50.7772 2.85131 50.7672 5.66053 50.727 8.47181C44.665 8.49188 38.601 8.33137 32.539 8.4919C36.8251 10.6611 41.3019 12.4169 45.6182 14.5118C45.6583 16.7512 45.6984 18.9986 45.7084 21.228C41.1514 23.3751 36.5141 25.3636 31.9169 27.4104C38.1997 27.5809 44.4844 27.4304 50.7672 27.4906C50.7672 30.3821 50.7672 33.2617 50.7371 36.1432C37.8485 36.1753 24.96 36.1351 12.0714 36.1853Z" fill="white" fill-opacity="0.8"/>
<path d="M21.6172 60.5501C21.6373 58.9649 21.6673 57.3676 21.6974 55.7723C24.0773 55.8124 26.4552 55.8626 28.835 55.9429C28.9654 53.4326 29.126 50.9263 29.2564 48.414C30.7112 48.4341 32.178 48.4341 33.6429 48.4341C33.6736 50.9237 33.6937 53.4132 33.7031 55.9027C36.111 55.8626 38.519 55.8358 40.9269 55.8225C40.947 57.3977 40.957 58.9849 40.9771 60.5401C38.537 60.5401 36.109 60.52 33.679 60.4598C33.679 62.9587 33.6589 65.4483 33.6188 67.9285C32.1439 67.9285 30.6771 67.9285 29.2223 67.9184C29.0216 65.4382 28.9012 62.95 28.8511 60.4598C26.4351 60.516 24.0271 60.5501 21.6172 60.5501Z" fill="white" fill-opacity="0.8"/>
<path d="M35.1464 305.442C22.2378 306.847 8.65897 297.04 6.98143 283.941C6.51539 280.175 6.85742 276.352 7.98475 272.728C30.7098 272.808 53.4348 272.728 76.1518 272.768C76.1217 276.874 76.1317 280.979 76.1417 285.085C74.7893 286.331 73.6439 287.785 72.7485 289.391C70.0075 295.754 74.8053 302.992 71.3138 309.186C69.1065 311.795 65.9942 308.765 63.2873 308.986C62.0087 309.762 60.7753 310.61 59.5931 311.526C59.0112 311.035 58.4393 310.523 57.8774 310.031C57.0748 311.085 56.2621 312.118 55.4173 313.134C53.7318 312.02 52.0542 310.874 50.3385 309.811C49.0921 311.361 47.7042 312.793 46.1929 314.087C42.6953 311.089 40.2874 305.759 35.1464 305.442Z" fill="white" fill-opacity="0.8"/>
<path d="M73.1464 258.678H63.7734V263.682H73.1464V265.107H62.4711V257.221H73.1464V258.678ZM65.4771 254.448L66.2797 254.293C65.9892 253.833 65.7504 253.342 65.5674 252.829C65.4628 252.516 65.4053 252.189 65.3968 251.859C65.3696 251.179 65.6085 250.515 66.063 250.007C66.3393 249.748 66.667 249.55 67.0248 249.426C67.3826 249.302 67.7625 249.255 68.1398 249.287H70.4956C70.8649 249.263 71.2352 249.315 71.584 249.439C71.9328 249.562 72.2527 249.756 72.5243 250.007C72.7695 250.272 72.9589 250.583 73.0813 250.922C73.2037 251.261 73.2565 251.622 73.2367 251.982C73.2329 252.309 73.2047 252.635 73.1524 252.957C73.0687 253.415 72.9341 253.862 72.7511 254.289H76.2065V255.61H65.4771V254.448ZM71.4969 254.293C71.6657 253.906 71.7955 253.503 71.8842 253.09C71.9451 252.768 71.976 252.442 71.9765 252.114C71.9777 251.918 71.9541 251.723 71.9063 251.532C71.8624 251.357 71.777 251.196 71.6575 251.061C71.5255 250.918 71.361 250.809 71.1779 250.744C70.9368 250.66 70.6825 250.62 70.4274 250.627H68.2201C68.0028 250.602 67.7826 250.622 67.5734 250.686C67.3642 250.75 67.1704 250.856 67.0041 250.999C66.772 251.275 66.653 251.629 66.671 251.99C66.6754 252.163 66.7017 252.335 66.7493 252.502C66.8047 252.706 66.8717 252.907 66.9499 253.104C67.0338 253.318 67.1296 253.528 67.2369 253.732C67.3368 253.924 67.448 254.11 67.57 254.289L71.4969 254.293ZM70.4274 241.497C70.8371 241.489 71.243 241.577 71.6133 241.752C71.9525 241.917 72.2512 242.155 72.4882 242.448C72.7298 242.751 72.9134 243.095 73.03 243.464C73.1563 243.859 73.2192 244.272 73.2166 244.688C73.2201 245.108 73.1571 245.527 73.03 245.928C72.916 246.294 72.732 246.635 72.4882 246.931C72.2489 247.217 71.9504 247.447 71.6133 247.605C71.2418 247.777 70.8364 247.862 70.4274 247.854H68.2041C67.7944 247.862 67.3884 247.775 67.0181 247.599C66.6801 247.435 66.3796 247.203 66.1352 246.917C65.8861 246.622 65.6966 246.281 65.5774 245.914C65.4442 245.517 65.3765 245.101 65.3767 244.682C65.374 244.248 65.4418 243.816 65.5774 243.404C65.6966 243.036 65.8861 242.695 66.1352 242.4C66.3764 242.117 66.6782 241.892 67.0181 241.742C67.3925 241.581 67.7967 241.502 68.2041 241.509L70.4274 241.497ZM68.4208 242.814C68.1299 242.805 67.8409 242.864 67.576 242.984C67.3568 243.087 67.1634 243.238 67.0101 243.426C66.8676 243.603 66.7625 243.808 66.7011 244.028C66.6459 244.234 66.6196 244.446 66.6228 244.66C66.6232 244.88 66.6542 245.098 66.7151 245.31C66.7765 245.529 66.8816 245.734 67.0242 245.912C67.1775 246.099 67.3708 246.25 67.59 246.353C67.8549 246.474 68.1439 246.532 68.4348 246.524H70.1665C70.4551 246.532 70.7423 246.482 71.0113 246.377C71.2283 246.289 71.422 246.152 71.5772 245.976C71.7239 245.806 71.8296 245.605 71.8862 245.388C71.9513 245.151 71.9844 244.906 71.9845 244.66C71.9836 244.444 71.9525 244.23 71.8922 244.024C71.8309 243.804 71.7258 243.599 71.5832 243.422C71.4299 243.234 71.2365 243.083 71.0173 242.98C70.7503 242.86 70.4592 242.803 70.1665 242.814H68.4208ZM76.2145 236.539H73.2246C73.2094 237.089 73.0966 237.633 72.8915 238.144C72.7234 238.554 72.4696 238.924 72.1471 239.228C71.8455 239.501 71.489 239.706 71.1016 239.83C70.707 239.962 70.2937 240.029 69.8776 240.03H68.9164C68.4697 240.034 68.0253 239.966 67.6001 239.83C67.1852 239.696 66.8026 239.477 66.4764 239.188C66.1404 238.884 65.8735 238.512 65.6938 238.096C65.486 237.603 65.3756 237.074 65.3687 236.539H62.4551V235.229H65.3687C65.3775 234.701 65.4801 234.179 65.6717 233.687C65.8343 233.276 66.0826 232.904 66.4001 232.596C66.7066 232.306 67.0711 232.084 67.4696 231.946C67.8854 231.8 68.3232 231.726 68.7639 231.729H69.8796C70.2947 231.727 70.7066 231.801 71.0956 231.946C71.4819 232.09 71.8349 232.311 72.133 232.596C72.4525 232.907 72.7075 233.278 72.8835 233.687C73.091 234.176 73.2067 234.698 73.2246 235.229H76.2145V236.539ZM66.5827 236.539C66.5709 236.878 66.6397 237.215 66.7834 237.522C66.9116 237.782 67.0935 238.012 67.3171 238.196C67.5388 238.374 67.794 238.506 68.0676 238.584C68.3519 238.666 68.6464 238.708 68.9425 238.708H69.6388C69.9283 238.709 70.217 238.678 70.4996 238.616C70.7648 238.558 71.0137 238.441 71.228 238.275C71.4517 238.095 71.6321 237.867 71.7558 237.608C71.9093 237.272 71.9959 236.909 72.0106 236.539H66.5827ZM72.0207 235.223C72.0341 234.87 71.9654 234.52 71.82 234.199C71.6945 233.937 71.5121 233.707 71.2862 233.525C71.0643 233.353 70.8086 233.229 70.5358 233.162C70.2498 233.089 69.9559 233.053 69.6609 233.053H68.9626C68.667 233.053 68.3728 233.092 68.0877 233.17C67.8138 233.242 67.5581 233.372 67.3372 233.549C67.1136 233.733 66.9317 233.963 66.8034 234.223C66.6579 234.537 66.5892 234.881 66.6028 235.227L72.0207 235.223ZM69.7993 228.948H70.311C70.5802 228.956 70.8478 228.903 71.0936 228.793C71.3003 228.695 71.481 228.549 71.6213 228.368C71.7629 228.184 71.8659 227.973 71.9243 227.748C71.9864 227.513 72.0175 227.271 72.0166 227.027C72.009 226.722 71.9569 226.419 71.8621 226.129C71.7404 225.756 71.5344 225.417 71.2601 225.137L72.1752 224.3C72.5572 224.66 72.8422 225.11 73.0039 225.609C73.1519 226.078 73.2277 226.566 73.2286 227.058C73.2306 227.477 73.1704 227.895 73.0501 228.298C72.9406 228.671 72.7615 229.02 72.5223 229.327C72.2876 229.623 71.9884 229.861 71.6474 230.023C71.2641 230.2 70.8455 230.288 70.4234 230.278H68.3887C67.9668 230.283 67.548 230.205 67.1566 230.047C66.7996 229.903 66.4774 229.684 66.2115 229.405C65.9466 229.125 65.7417 228.793 65.6095 228.43C65.4689 228.029 65.4009 227.607 65.4088 227.182C65.4042 226.756 65.472 226.332 65.6095 225.928C65.7329 225.565 65.928 225.23 66.1834 224.945C66.4349 224.668 66.7447 224.451 67.0904 224.308C67.4726 224.154 67.882 224.077 68.2944 224.084H69.8134L69.7993 228.948ZM68.4208 225.43C68.1408 225.423 67.8621 225.47 67.6001 225.569C67.3861 225.652 67.193 225.782 67.0342 225.948C66.8851 226.107 66.774 226.298 66.7091 226.506C66.641 226.724 66.6071 226.951 66.6088 227.18C66.607 227.407 66.6437 227.632 66.7171 227.846C66.7885 228.051 66.8989 228.241 67.0422 228.404C67.1932 228.574 67.3814 228.706 67.592 228.791C67.8411 228.889 68.1071 228.936 68.3746 228.93H68.7157V225.428L68.4208 225.43ZM65.3847 219.759C65.3866 219.302 65.4466 218.846 65.5633 218.403C65.6925 217.926 65.9591 217.498 66.3299 217.171L67.3332 217.962C67.0576 218.225 66.8509 218.553 66.7312 218.915C66.6594 219.17 66.6202 219.433 66.6148 219.697C66.6172 219.901 66.6483 220.104 66.7071 220.299C66.7683 220.51 66.8736 220.706 67.0161 220.873C67.1722 221.052 67.3653 221.194 67.582 221.291C67.8483 221.406 68.1367 221.461 68.4268 221.453H70.1665C70.4558 221.461 70.7436 221.408 71.0113 221.299C71.2269 221.208 71.4201 221.071 71.5772 220.897C71.7206 220.734 71.8261 220.54 71.8862 220.331C71.9475 220.123 71.9785 219.907 71.9785 219.689C71.9701 219.408 71.9235 219.129 71.8401 218.861C71.7506 218.541 71.5799 218.25 71.3444 218.016L72.2735 217.195C72.6178 217.528 72.8737 217.942 73.0179 218.399C73.1504 218.828 73.2181 219.274 73.2186 219.723C73.2243 220.145 73.1564 220.565 73.0179 220.963C72.8937 221.318 72.7046 221.647 72.4601 221.933C72.2238 222.206 71.9298 222.423 71.5993 222.569C71.2501 222.721 70.8726 222.798 70.4916 222.793H68.2181C67.8119 222.799 67.4094 222.714 67.0402 222.545C66.6982 222.386 66.3923 222.16 66.1412 221.878C65.8909 221.596 65.6987 221.266 65.5754 220.909C65.4471 220.54 65.3826 220.151 65.3847 219.759ZM65.3847 213.114C65.3866 212.656 65.4466 212.2 65.5633 211.757C65.6925 211.28 65.9591 210.852 66.3299 210.525L67.3332 211.316C67.0576 211.579 66.8509 211.907 66.7312 212.269C66.6593 212.524 66.6202 212.787 66.6148 213.051C66.6172 213.255 66.6483 213.458 66.7071 213.653C66.7683 213.864 66.8736 214.06 67.0161 214.227C67.1722 214.406 67.3653 214.548 67.582 214.645C67.8483 214.76 68.1367 214.815 68.4268 214.807H70.1665C70.4558 214.815 70.7436 214.763 71.0113 214.653C71.2269 214.562 71.4201 214.425 71.5772 214.251C71.7205 214.088 71.826 213.894 71.8862 213.685C71.9475 213.477 71.9785 213.261 71.9785 213.043C71.9701 212.762 71.9235 212.483 71.8401 212.215C71.7506 211.895 71.5799 211.604 71.3444 211.37L72.2775 210.547C72.6218 210.88 72.8777 211.294 73.022 211.751C73.1544 212.18 73.2221 212.626 73.2226 213.075C73.2284 213.497 73.1604 213.917 73.022 214.316C72.8978 214.67 72.7086 214.999 72.4641 215.285C72.2278 215.558 71.9338 215.775 71.6033 215.921C71.2542 216.073 70.8766 216.15 70.4956 216.146H68.2181C67.8119 216.151 67.4094 216.066 67.0402 215.897C66.6982 215.738 66.3923 215.512 66.1412 215.231C65.8909 214.948 65.6987 214.618 65.5754 214.261C65.4473 213.892 65.3828 213.504 65.3847 213.114ZM71.0033 208.047L69.2535 206.901L65.473 204.345V203.09H73.1424V204.453H67.6001V204.527L69.3819 205.689L73.1464 208.233V209.457H65.4771V208.109H71.0073L71.0033 208.047ZM70.4294 195.218C70.8391 195.211 71.245 195.298 71.6153 195.473C71.9545 195.638 72.2532 195.876 72.4902 196.17C72.7318 196.472 72.9154 196.816 73.032 197.185C73.1583 197.581 73.2213 197.994 73.2186 198.409C73.2221 198.83 73.1591 199.248 73.032 199.649C72.918 200.015 72.734 200.356 72.4902 200.652C72.2509 200.938 71.9524 201.168 71.6153 201.327C71.2438 201.498 70.8384 201.583 70.4294 201.575H68.2041C67.7944 201.583 67.3884 201.496 67.0181 201.321C66.6801 201.156 66.3796 200.924 66.1352 200.638C65.8861 200.343 65.6966 200.002 65.5774 199.635C65.4442 199.238 65.3765 198.822 65.3767 198.403C65.374 197.969 65.4418 197.537 65.5774 197.125C65.6966 196.757 65.8861 196.417 66.1352 196.121C66.3764 195.839 66.6782 195.614 67.0181 195.463C67.3925 195.302 67.7967 195.223 68.2041 195.231L70.4294 195.218ZM68.4228 196.535C68.1319 196.527 67.8429 196.585 67.578 196.705C67.3588 196.808 67.1654 196.959 67.0121 197.147C66.8696 197.325 66.7645 197.529 66.7031 197.749C66.6428 197.956 66.6117 198.17 66.6108 198.385C66.6111 198.605 66.6422 198.824 66.7031 199.035C66.7645 199.255 66.8696 199.459 67.0121 199.637C67.1654 199.825 67.3588 199.975 67.578 200.079C67.8429 200.199 68.1319 200.257 68.4228 200.249H70.1665C70.4551 200.257 70.7423 200.207 71.0113 200.103C71.2283 200.014 71.422 199.877 71.5772 199.701C71.7239 199.532 71.8296 199.33 71.8862 199.113C71.9493 198.876 71.9804 198.631 71.9785 198.385C71.9776 198.17 71.9465 197.956 71.8862 197.749C71.8249 197.529 71.7197 197.325 71.5772 197.147C71.4239 196.959 71.2305 196.808 71.0113 196.705C70.7464 196.585 70.4575 196.527 70.1665 196.535H68.4228ZM73.1323 188.709H69.8776V192.369H73.1464V193.691H65.4771V192.359H68.6676V188.703H65.4771V187.355H73.1464L73.1323 188.709ZM72.3879 181.01C72.6683 181.479 72.8893 181.981 73.046 182.505C73.1376 182.846 73.1868 183.197 73.1925 183.55C73.2252 184.202 73.0028 184.841 72.5725 185.332C72.3548 185.557 72.0913 185.733 71.7999 185.848C71.5084 185.963 71.1958 186.014 70.8829 185.998C70.5058 186.011 70.1334 185.911 69.8134 185.711C69.5307 185.526 69.2906 185.284 69.109 184.999C68.9295 184.718 68.7986 184.408 68.7218 184.084C68.6492 183.798 68.6102 183.504 68.6054 183.209V180.961H68.0174C67.8076 180.938 67.5952 180.967 67.3992 181.045C67.2032 181.124 67.0296 181.249 66.8937 181.411C66.6588 181.797 66.5482 182.246 66.5767 182.697C66.5839 183.028 66.6228 183.357 66.6931 183.68C66.7948 184.114 67.0015 184.516 67.2951 184.85L66.2917 185.5C65.9364 185.06 65.6822 184.547 65.5473 183.997C65.4392 183.537 65.382 183.066 65.3767 182.593C65.3115 181.796 65.5462 181.003 66.0349 180.369C66.302 180.111 66.6211 179.913 66.971 179.788C67.3208 179.663 67.6934 179.614 68.0636 179.645H73.1444V180.807L72.432 180.961L72.3879 181.01ZM69.707 180.963V182.996C69.7078 183.175 69.7206 183.353 69.7451 183.53C69.7691 183.715 69.8213 183.895 69.8997 184.064C69.98 184.227 70.1035 184.366 70.2568 184.465C70.4451 184.581 70.664 184.638 70.8849 184.628C71.0448 184.638 71.205 184.609 71.351 184.543C71.497 184.477 71.6243 184.376 71.7217 184.248C71.9171 183.964 72.015 183.624 72.0006 183.279C71.9986 183.076 71.9702 182.873 71.9163 182.677C71.8626 182.466 71.7956 182.259 71.7156 182.057C71.6327 181.855 71.5424 181.661 71.4448 181.475L71.1698 180.965L69.707 180.963ZM66.6549 175.832H68.7318C69.3976 175.82 70.0626 175.883 70.7143 176.019C71.1739 176.116 71.6141 176.289 72.0166 176.531C72.3412 176.732 72.6206 176.999 72.8373 177.313C73.049 177.628 73.2259 177.964 73.3651 178.317L72.2956 178.858C72.1759 178.595 72.0364 178.342 71.8782 178.1C71.7241 177.876 71.5174 177.692 71.2762 177.566C70.9616 177.407 70.6223 177.303 70.2729 177.257C69.7338 177.182 69.1897 177.148 68.6455 177.157H65.4771V171.819H73.1464V173.152H66.6549V175.832ZM71.0093 168.705L69.2595 167.559L65.4791 165.003V163.749H73.1484V165.117H67.6001V165.197L69.3819 166.359L73.1464 168.898V170.122H65.4771V168.773H71.0073L71.0093 168.705ZM71.3344 161.965C71.5766 161.688 71.7566 161.363 71.8621 161.012C71.9688 160.688 72.0263 160.349 72.0327 160.008C72.0393 159.729 72.0055 159.449 71.9324 159.18C71.8785 158.984 71.7894 158.801 71.6695 158.638C71.5729 158.507 71.4453 158.403 71.2983 158.335C71.1646 158.274 71.0196 158.243 70.8729 158.242C70.7131 158.233 70.5536 158.265 70.4098 158.335C70.266 158.406 70.1428 158.512 70.0522 158.644C69.857 158.951 69.7597 159.31 69.7732 159.673V160.727H68.6736V159.643C68.695 159.296 68.587 158.954 68.3706 158.682C68.2786 158.573 68.1635 158.486 68.0337 158.427C67.9039 158.368 67.7627 158.339 67.6201 158.341C67.465 158.335 67.3115 158.374 67.1783 158.454C67.0451 158.534 66.9379 158.651 66.8697 158.79C66.7053 159.106 66.6226 159.458 66.6289 159.814C66.6315 160.13 66.6761 160.446 66.7613 160.751C66.8524 161.082 67.0193 161.387 67.2489 161.642L66.3339 162.462C65.994 162.103 65.7443 161.667 65.6055 161.192C65.4628 160.72 65.3898 160.229 65.3888 159.735C65.3817 159.339 65.4393 158.944 65.5593 158.565C65.6569 158.258 65.8152 157.974 66.0249 157.729C66.2108 157.514 66.4408 157.343 66.6991 157.225C66.9547 157.111 67.2318 157.053 67.5118 157.054C67.6461 157.055 67.7802 157.065 67.9131 157.085C68.0726 157.108 68.2272 157.158 68.3706 157.231C68.5343 157.315 68.6834 157.425 68.8121 157.556C68.9662 157.719 69.0851 157.911 69.1612 158.122C69.242 157.905 69.3632 157.706 69.5184 157.534C69.6523 157.388 69.8096 157.265 69.9839 157.171C70.1343 157.088 70.2958 157.028 70.4635 156.992C70.5955 156.964 70.7299 156.949 70.8648 156.946C71.1868 156.943 71.5059 157.006 71.8019 157.133C72.0896 157.259 72.3443 157.45 72.5464 157.691C72.7719 157.964 72.9405 158.28 73.042 158.62C73.1682 159.042 73.2284 159.481 73.2206 159.922C73.2227 160.422 73.1551 160.92 73.02 161.401C72.8744 161.903 72.618 162.367 72.2695 162.757L71.3344 161.965ZM68.2984 149.245L69.8796 150.081L72.0487 151.306V152.221L70.2428 153.224L68.4148 154.185V154.247H73.1564V155.596H65.4771V154.362L68.3907 152.812L70.4655 151.753L68.4047 150.653L65.4771 149.048V147.844H73.1464V149.193H68.2964L68.2984 149.245ZM71.0073 141.118L69.2575 139.972L65.4771 137.416V136.162H73.1464V137.524H67.6001V137.602L69.3819 138.764L73.1464 141.305V142.523H65.4771V141.174H71.0073V141.118ZM70.8207 124.82C71.1066 124.821 71.39 124.874 71.6575 124.975C71.9347 125.077 72.1896 125.233 72.4079 125.432C72.6376 125.644 72.8195 125.903 72.9417 126.191C73.0819 126.527 73.1503 126.888 73.1424 127.252V130.986H65.4771V127.284C65.4688 126.931 65.5266 126.579 65.6476 126.247C65.7494 125.976 65.9082 125.73 66.1132 125.526C66.3051 125.338 66.535 125.193 66.7874 125.101C67.0445 125.007 67.3164 124.96 67.59 124.963C67.8874 124.967 68.1795 125.041 68.4428 125.179C68.7415 125.334 68.9848 125.577 69.1391 125.876C69.2851 125.524 69.5511 125.236 69.8896 125.063C70.1779 124.911 70.4972 124.828 70.8227 124.82H70.8207ZM70.8207 126.169C70.6676 126.161 70.5149 126.189 70.3752 126.253C70.2355 126.316 70.1131 126.411 70.018 126.532C69.8315 126.761 69.7301 127.049 69.7311 127.344V129.638H71.9725V127.485C72.0047 127.124 71.8962 126.764 71.6695 126.482C71.5576 126.374 71.4246 126.29 71.2789 126.236C71.1331 126.183 70.9778 126.159 70.8227 126.169H70.8207ZM67.5981 126.293C67.4555 126.283 67.3128 126.312 67.1858 126.377C67.0587 126.443 66.9521 126.542 66.8777 126.664C66.728 126.912 66.6502 127.196 66.6529 127.485V129.638H68.5432V127.407C68.5583 127.116 68.4733 126.829 68.3024 126.594C68.2173 126.492 68.1094 126.411 67.9874 126.359C67.8654 126.306 67.7327 126.283 67.6001 126.291L67.5981 126.293ZM73.1464 116.637H65.4771V115.351H73.1464V116.637ZM70.7685 118.716C70.4693 118.718 70.1822 118.834 69.9659 119.041C69.8328 119.183 69.7316 119.352 69.669 119.537C69.6063 119.721 69.5837 119.917 69.6027 120.111V122.117H71.9725V120.111C71.9954 119.742 71.8882 119.378 71.6695 119.081C71.5577 118.955 71.4182 118.856 71.2619 118.793C71.1056 118.729 70.9367 118.703 70.7685 118.716ZM68.4509 122.093V120.064C68.4444 119.672 68.5048 119.282 68.6295 118.911C68.7327 118.601 68.8987 118.316 69.1171 118.074C69.3216 117.853 69.5733 117.681 69.8535 117.57C70.1467 117.455 70.4594 117.397 70.7745 117.4C71.0937 117.386 71.4121 117.441 71.7086 117.56C72.0051 117.679 72.2729 117.859 72.4942 118.09C72.9609 118.644 73.194 119.358 73.1444 120.08V123.425H65.459V122.093H68.4509ZM65.3847 110.818C65.3866 110.36 65.4466 109.904 65.5633 109.461C65.6925 108.984 65.9591 108.556 66.3299 108.229L67.3332 109.02C67.0576 109.284 66.8509 109.611 66.7312 109.973C66.6594 110.228 66.6202 110.491 66.6148 110.756C66.6172 110.96 66.6483 111.162 66.7071 111.358C66.7683 111.569 66.8736 111.764 67.0161 111.932C67.1722 112.11 67.3653 112.253 67.582 112.349C67.8483 112.464 68.1367 112.52 68.4268 112.511H70.1665C70.4558 112.519 70.7436 112.467 71.0113 112.357C71.2269 112.266 71.4201 112.129 71.5772 111.956C71.7206 111.792 71.8261 111.599 71.8862 111.39C71.9475 111.181 71.9785 110.965 71.9785 110.748C71.9701 110.466 71.9235 110.188 71.8401 109.919C71.7506 109.599 71.5799 109.308 71.3444 109.074L72.2735 108.253C72.6178 108.587 72.8737 109 73.0179 109.457C73.1504 109.886 73.2181 110.333 73.2186 110.782C73.2243 111.204 73.1564 111.623 73.0179 112.022C72.8937 112.377 72.7046 112.705 72.4601 112.991C72.2237 113.264 71.9297 113.481 71.5993 113.627C71.2501 113.78 70.8726 113.856 70.4916 113.852H68.2181C67.8119 113.858 67.4094 113.773 67.0402 113.603C66.6982 113.445 66.3922 113.218 66.1412 112.937C65.8909 112.654 65.6987 112.325 65.5754 111.968C65.4471 111.598 65.3826 111.209 65.3847 110.818ZM70.4354 100.841C70.8451 100.833 71.2511 100.92 71.6213 101.096C71.9606 101.261 72.2593 101.499 72.4962 101.792C72.7378 102.094 72.9215 102.438 73.038 102.807C73.1643 103.203 73.2273 103.616 73.2246 104.031C73.2281 104.452 73.1651 104.871 73.038 105.272C72.9241 105.638 72.7401 105.979 72.4962 106.275C72.2569 106.56 71.9584 106.79 71.6213 106.949C71.2498 107.12 70.8444 107.205 70.4354 107.198H68.2041C67.7944 107.206 67.3884 107.119 67.0181 106.943C66.6801 106.779 66.3796 106.546 66.1352 106.261C65.8861 105.966 65.6966 105.625 65.5774 105.257C65.4442 104.86 65.3765 104.444 65.3767 104.025C65.374 103.591 65.4418 103.16 65.5774 102.747C65.6966 102.38 65.8861 102.039 66.1352 101.744C66.3764 101.461 66.6782 101.236 67.0181 101.086C67.3925 100.925 67.7967 100.846 68.2041 100.853L70.4354 100.841ZM68.4288 102.157C68.1379 102.149 67.8489 102.207 67.584 102.328C67.3648 102.431 67.1715 102.582 67.0181 102.769C66.8756 102.947 66.7705 103.152 66.7091 103.371C66.6488 103.578 66.6177 103.792 66.6168 104.007C66.6171 104.227 66.6482 104.446 66.7091 104.658C66.7705 104.877 66.8756 105.082 67.0181 105.26C67.1715 105.447 67.3648 105.598 67.584 105.701C67.8489 105.821 68.1379 105.88 68.4288 105.872H70.1665C70.4551 105.879 70.7423 105.83 71.0113 105.725C71.2283 105.637 71.422 105.499 71.5772 105.324C71.7239 105.154 71.8296 104.953 71.8862 104.736C71.9493 104.498 71.9804 104.253 71.9785 104.007C71.9776 103.792 71.9465 103.578 71.8862 103.371C71.8249 103.152 71.7197 102.947 71.5772 102.769C71.4239 102.582 71.2305 102.431 71.0113 102.328C70.7464 102.207 70.4575 102.149 70.1665 102.157H68.4288ZM73.1383 99.338H65.453V98.0216H68.7218V96.7193C68.7215 96.5745 68.7134 96.4298 68.6977 96.2859C68.6825 96.1442 68.6374 96.0074 68.5652 95.8846C68.4828 95.749 68.3752 95.6305 68.2482 95.5354C68.0715 95.4081 67.8748 95.3111 67.6663 95.2485L65.459 94.504V93.1415L67.6904 93.9C68.0211 94.0044 68.3363 94.1529 68.6275 94.3415C68.8741 94.5022 69.0533 94.7478 69.1311 95.0317C69.1618 94.8728 69.225 94.7219 69.3169 94.5885C69.4087 94.4552 69.5272 94.3424 69.6649 94.2572C69.9751 94.0758 70.305 93.9304 70.6481 93.8238L73.1424 93.003V94.3976L71.0193 95.0638C70.808 95.1283 70.6057 95.2193 70.4174 95.3347C70.2808 95.4197 70.1644 95.5334 70.0762 95.6678C69.9994 95.7905 69.947 95.9267 69.9217 96.0692C69.895 96.2276 69.8822 96.3881 69.8836 96.5488V98.0196H73.1363L73.1383 99.338ZM71.0013 90.4306L69.2515 89.2848L65.471 86.7283V85.4742H73.1404V86.8367H67.6001V86.9149L69.3819 88.0768L73.1464 90.6112V91.8352H65.4771V90.4867H71.0073L71.0013 90.4306ZM69.7973 82.6368H70.309C70.5782 82.6453 70.8458 82.5925 71.0916 82.4823C71.2983 82.3837 71.479 82.238 71.6193 82.0569C71.7609 81.8726 71.8639 81.6618 71.9223 81.4369C71.9844 81.2018 72.0155 80.9596 72.0146 80.7165C72.007 80.4109 71.9549 80.1081 71.8601 79.8175C71.7384 79.4452 71.5324 79.106 71.2581 78.8262L72.1732 77.9895C72.5552 78.3489 72.8402 78.7989 73.0019 79.2978C73.1499 79.7665 73.2257 80.2551 73.2266 80.7466C73.2286 81.1665 73.1684 81.5844 73.048 81.9867C72.9386 82.36 72.7595 82.7093 72.5203 83.0161C72.2856 83.3119 71.9864 83.5501 71.6454 83.7124C71.2621 83.8894 70.8435 83.9765 70.4214 83.9672H68.3887C67.9662 83.9699 67.5474 83.8888 67.1566 83.7284C66.7996 83.5838 66.4774 83.3649 66.2115 83.0863C65.9466 82.8056 65.7417 82.4737 65.6095 82.1111C65.4689 81.7103 65.4009 81.2876 65.4088 80.863C65.4042 80.4366 65.472 80.0125 65.6095 79.6088C65.7329 79.2459 65.928 78.9115 66.1834 78.6256C66.4349 78.349 66.7447 78.1317 67.0904 77.9895C67.4726 77.8345 67.882 77.7581 68.2944 77.7648H69.8134L69.7973 82.6368ZM68.4208 79.1132C68.1408 79.1059 67.8621 79.1529 67.6001 79.2516C67.3861 79.3354 67.193 79.4649 67.0342 79.6309C66.8851 79.79 66.774 79.9807 66.7091 80.1888C66.641 80.4069 66.6071 80.6344 66.6088 80.863C66.607 81.0896 66.6437 81.3148 66.7171 81.5292C66.7885 81.7343 66.8989 81.9238 67.0422 82.087C67.1932 82.2568 67.3814 82.3893 67.592 82.4743C67.8411 82.5722 68.1071 82.6192 68.3746 82.6127H68.7157V79.1132H68.4208ZM66.6549 69.5697H73.1464V70.9482H66.6549V73.3221H65.461V67.1878H66.6549V69.5697ZM69.7993 64.9685H70.311C70.5802 64.977 70.8478 64.9242 71.0936 64.814C71.3003 64.7153 71.481 64.5697 71.6213 64.3886C71.7629 64.2043 71.8659 63.9934 71.9243 63.7685C71.9864 63.5335 72.0174 63.2913 72.0166 63.0482C72.009 62.7426 71.9569 62.4398 71.8621 62.1492C71.7404 61.7769 71.5344 61.4377 71.2601 61.1579L72.1752 60.3212C72.5572 60.6805 72.8422 61.1306 73.0039 61.6295C73.1519 62.0982 73.2277 62.5867 73.2286 63.0783C73.2306 63.4982 73.1704 63.9161 73.0501 64.3184C72.9406 64.6917 72.7615 65.041 72.5223 65.3477C72.2876 65.6436 71.9884 65.8818 71.6474 66.0441C71.2641 66.2211 70.8455 66.3083 70.4234 66.2989H68.3887C67.9669 66.3048 67.5481 66.227 67.1566 66.0701C66.7996 65.9255 66.4774 65.7066 66.2115 65.428C65.9466 65.1473 65.7417 64.8154 65.6095 64.4528C65.4689 64.052 65.4009 63.6293 65.4088 63.2047C65.4042 62.7783 65.472 62.3542 65.6095 61.9505C65.7329 61.5876 65.928 61.2532 66.1834 60.9673C66.4349 60.6907 66.7447 60.4734 67.0904 60.3312C67.4726 60.1762 67.882 60.0998 68.2944 60.1065H69.8134L69.7993 64.9685ZM68.4208 61.4549C68.1408 61.4476 67.8621 61.4946 67.6001 61.5934C67.3861 61.6772 67.193 61.8066 67.0342 61.9726C66.8851 62.1317 66.774 62.3224 66.7091 62.5305C66.641 62.7486 66.6071 62.9761 66.6088 63.2047C66.607 63.4313 66.6437 63.6565 66.7171 63.8709C66.7885 64.076 66.8989 64.2655 67.0422 64.4287C67.1932 64.5985 67.3814 64.731 67.592 64.816C67.8411 64.9139 68.1071 64.9609 68.3746 64.9545H68.7157V61.4549H68.4208ZM73.1464 54.514L70.2649 56.2377L73.1464 58.0035V59.5687L69.2114 56.9601L65.463 59.4081V57.8028L68.1439 56.1976L65.463 54.5702V52.989L69.1813 55.4671L73.1484 52.8806L73.1464 54.514ZM73.1464 47.0473H69.8776V50.7034H73.1464V52.0358H65.4771V50.7034H68.6676V47.0473H65.4771V45.6989H73.1464V47.0473ZM70.4354 37.8289C70.8451 37.821 71.2511 37.9082 71.6213 38.0838C71.9606 38.2488 72.2593 38.4865 72.4962 38.7801C72.7378 39.0823 72.9215 39.4265 73.038 39.7954C73.1643 40.191 73.2273 40.6041 73.2246 41.0194C73.2281 41.44 73.1651 41.8586 73.038 42.2596C72.9241 42.6259 72.7401 42.9666 72.4962 43.2629C72.2569 43.5484 71.9584 43.7784 71.6213 43.9371C71.2498 44.1082 70.8444 44.1933 70.4354 44.1859H68.2041C67.7944 44.1938 67.3884 44.1066 67.0181 43.9311C66.6801 43.7666 66.3796 43.5344 66.1352 43.2488C65.8861 42.9537 65.6966 42.6129 65.5774 42.2455C65.4442 41.8484 65.3765 41.4323 65.3767 41.0134C65.374 40.5793 65.4418 40.1476 65.5774 39.7352C65.6966 39.3678 65.8861 39.027 66.1352 38.7319C66.3764 38.4491 66.6782 38.2241 67.0181 38.0737C67.3925 37.9129 67.7967 37.8335 68.2041 37.841L70.4354 37.8289ZM68.4288 39.1453C68.1379 39.1369 67.8489 39.1953 67.584 39.3158C67.3648 39.4189 67.1715 39.5697 67.0181 39.7573C66.8756 39.9351 66.7705 40.1398 66.7091 40.3593C66.6488 40.5659 66.6177 40.7801 66.6168 40.9954C66.6171 41.2153 66.6482 41.4342 66.7091 41.6455C66.7705 41.8649 66.8756 42.0697 67.0181 42.2475C67.1715 42.435 67.3648 42.5859 67.584 42.6889C67.8489 42.8095 68.1379 42.8678 68.4288 42.8595H70.1665C70.4551 42.8674 70.7423 42.8176 71.0113 42.713C71.2283 42.6246 71.422 42.4872 71.5772 42.3117C71.7239 42.142 71.8296 41.9408 71.8862 41.7238C71.9493 41.4862 71.9804 41.2412 71.9785 40.9954C71.9776 40.7801 71.9465 40.5659 71.8862 40.3593C71.8249 40.1398 71.7197 39.9351 71.5772 39.7573C71.4239 39.5697 71.2305 39.4189 71.0113 39.3158C70.7464 39.1953 70.4575 39.1369 70.1665 39.1453H68.4288ZM66.6469 34.0324H68.7238C69.3895 34.0198 70.0546 34.0824 70.7063 34.219C71.1658 34.316 71.606 34.4889 72.0086 34.7307C72.3332 34.9322 72.6126 35.1987 72.8293 35.5133C73.041 35.8277 73.2179 36.1641 73.3571 36.5166L72.2875 37.0584C72.1679 36.7953 72.0283 36.5417 71.8702 36.2999C71.7161 36.0755 71.5094 35.8922 71.2682 35.7661C70.9535 35.6073 70.6143 35.5028 70.2649 35.4571C69.7258 35.3817 69.1817 35.3481 68.6375 35.3568H65.4771V30.0272H73.1464V31.3555H66.6549L66.6469 34.0324ZM70.4274 21.9926C70.8371 21.9847 71.243 22.0719 71.6133 22.2475C71.9525 22.4125 72.2512 22.6503 72.4882 22.9438C72.7298 23.246 72.9134 23.5902 73.03 23.9591C73.1563 24.3548 73.2192 24.7679 73.2166 25.1832C73.2201 25.6038 73.1571 26.0223 73.03 26.4233C72.916 26.7896 72.732 27.1304 72.4882 27.4266C72.2489 27.7121 71.9504 27.9422 71.6133 28.1008C71.2418 28.272 70.8364 28.357 70.4274 28.3496H68.2041C67.7944 28.3576 67.3884 28.2703 67.0181 28.0948C66.6801 27.9303 66.3796 27.6981 66.1352 27.4125C65.8861 27.1174 65.6966 26.7766 65.5774 26.4092C65.4442 26.0121 65.3765 25.596 65.3767 25.1772C65.374 24.743 65.4418 24.3114 65.5774 23.8989C65.6966 23.5315 65.8861 23.1908 66.1352 22.8956C66.3764 22.6128 66.6782 22.3878 67.0181 22.2374C67.3925 22.0767 67.7967 21.9973 68.2041 22.0047L70.4274 21.9926ZM68.4208 23.309C68.1299 23.3007 67.8409 23.359 67.576 23.4796C67.3568 23.5826 67.1634 23.7335 67.0101 23.921C66.8676 24.0988 66.7625 24.3036 66.7011 24.523C66.6408 24.7297 66.6097 24.9438 66.6088 25.1591C66.6091 25.379 66.6402 25.5979 66.7011 25.8092C66.7625 26.0287 66.8676 26.2335 67.0101 26.4112C67.1634 26.5988 67.3568 26.7496 67.576 26.8527C67.8409 26.9732 68.1299 27.0316 68.4208 27.0232H70.1665C70.4551 27.0312 70.7423 26.9814 71.0113 26.8768C71.2283 26.7882 71.4219 26.6509 71.5772 26.4754C71.7239 26.3057 71.8296 26.1046 71.8862 25.8875C71.9493 25.6499 71.9804 25.4049 71.9785 25.1591C71.9776 24.9438 71.9465 24.7297 71.8862 24.523C71.8218 24.3066 71.7146 24.1054 71.5712 23.931C71.4178 23.7435 71.2245 23.5927 71.0053 23.4896C70.7404 23.369 70.4514 23.3107 70.1605 23.319L68.4208 23.309ZM66.6389 19.2034H73.1303V20.5519H65.4449V15.0838H66.6389V19.2034ZM70.9933 12.8826L69.2435 11.7368L65.463 9.18034V7.92621H73.1323V9.28267H67.6001V9.36093L69.3819 10.5228L73.1464 13.0632V14.2872H65.4771V12.9388H71.0073L70.9933 12.8826ZM70.9933 4.96643L69.2435 3.82065L65.4771 1.25616V0.00204468H73.1464V1.36453H67.6001V1.45685L69.3819 2.61868L73.1464 5.15909V6.38312H65.4771V5.03464H71.0073L70.9933 4.96643Z" fill="white" fill-opacity="0.8"/>
</svg>
