<svg width="15" height="15" viewBox="0 0 15 15" fill="none" xmlns="http://www.w3.org/2000/svg">
<path d="M10.935 8.98922C10.747 8.89406 9.83156 8.44734 9.66047 8.38359C9.48938 8.32266 9.36516 8.29078 9.24047 8.47875C9.11859 8.66203 8.75953 9.08156 8.64984 9.20391C8.54016 9.32625 8.43234 9.33562 8.24719 9.25266C8.05922 9.1575 7.45875 8.96203 6.74578 8.32266C6.18891 7.82719 5.81812 7.21687 5.70797 7.02891C5.59828 6.84328 5.69578 6.73828 5.78859 6.64547C5.87391 6.56016 5.97656 6.43078 6.07172 6.31828C6.16219 6.20578 6.19125 6.13031 6.25734 6.00844C6.31828 5.87672 6.28687 5.77406 6.24047 5.68125C6.19406 5.58844 5.82047 4.66828 5.66437 4.30172C5.51531 3.93797 5.35922 3.98437 5.24437 3.98437C5.13703 3.97453 5.01234 3.97453 4.88812 3.97453C4.76391 3.97453 4.56094 4.02094 4.38984 4.19906C4.21875 4.38703 3.73547 4.83609 3.73547 5.74453C3.73547 6.65531 4.40437 7.53656 4.49719 7.66828C4.59234 7.79016 5.81297 9.66516 7.68563 10.4709C8.13234 10.6589 8.47922 10.7714 8.75016 10.8642C9.19688 11.0058 9.60469 10.9861 9.92672 10.9397C10.283 10.8811 11.0302 10.4878 11.1867 10.0486C11.3456 9.60656 11.3456 9.24047 11.2992 9.1575C11.2528 9.07219 11.1309 9.02578 10.943 8.94281L10.935 8.98922ZM7.53891 13.5938H7.52906C6.42047 13.5938 5.32453 13.2933 4.36734 12.7317L4.14281 12.5977L1.79906 13.208L2.42906 10.9275L2.27766 10.6931C1.65865 9.70892 1.33026 8.56987 1.33031 7.40719C1.33031 4.00406 4.11609 1.22812 7.54359 1.22812C9.20391 1.22812 10.7616 1.875 11.9334 3.04688C12.5115 3.61809 12.9701 4.29871 13.2824 5.04903C13.5946 5.79934 13.7543 6.60433 13.7522 7.41703C13.7475 10.8178 10.9641 13.5938 7.54125 13.5938H7.53891ZM12.8245 2.15578C11.3986 0.778594 9.52359 0 7.52906 0C3.41531 0 0.065625 3.33516 0.0632813 7.43391C0.0632813 8.74266 0.405 10.0195 1.05937 11.1497L0 15L3.96 13.9673C5.05702 14.5588 6.28323 14.8699 7.52953 14.873H7.53188C11.648 14.873 14.9977 11.5378 15 7.43625C15 5.45156 14.2261 3.58359 12.8152 2.17969L12.8245 2.15578Z" fill="white"/>
</svg>
