<svg width="17" height="12" viewBox="0 0 17 12" fill="none" xmlns="http://www.w3.org/2000/svg">
<path d="M16.5 5.94829C16.5 5.90766 16.5 5.8615 16.4982 5.80794C16.4964 5.65836 16.4929 5.4903 16.4893 5.31117C16.475 4.79594 16.45 4.28255 16.4107 3.79871C16.3571 3.13204 16.2786 2.57618 16.1714 2.15882C16.0584 1.72327 15.8367 1.32604 15.5287 1.00683C15.2207 0.687617 14.837 0.45761 14.4161 0.339797C13.9107 0.199446 12.9214 0.11265 11.5286 0.059095C10.8661 0.0332409 10.1571 0.0166204 9.44821 0.00738678C9.2 0.00369333 8.96964 0.00184672 8.7625 0H8.2375C8.03036 0.00184672 7.8 0.00369333 7.55179 0.00738678C6.84286 0.0166204 6.13393 0.0332409 5.47143 0.059095C4.07857 0.114497 3.0875 0.201293 2.58393 0.339797C2.16286 0.457321 1.77905 0.68723 1.47097 1.00648C1.16289 1.32574 0.941357 1.72312 0.828571 2.15882C0.719643 2.57618 0.642857 3.13204 0.589286 3.79871C0.55 4.28255 0.525 4.79594 0.510714 5.31117C0.505357 5.4903 0.503571 5.65836 0.501786 5.80794C0.501786 5.8615 0.5 5.90766 0.5 5.94829V6.05171C0.5 6.09234 0.5 6.1385 0.501786 6.19206C0.503571 6.34164 0.507143 6.50969 0.510714 6.68883C0.525 7.20406 0.55 7.71745 0.589286 8.20129C0.642857 8.86796 0.721429 9.42382 0.828571 9.84118C1.05714 10.7258 1.72857 11.4238 2.58393 11.6602C3.0875 11.8006 4.07857 11.8873 5.47143 11.9409C6.13393 11.9668 6.84286 11.9834 7.55179 11.9926C7.8 11.9963 8.03036 11.9982 8.2375 12H8.7625C8.96964 11.9982 9.2 11.9963 9.44821 11.9926C10.1571 11.9834 10.8661 11.9668 11.5286 11.9409C12.9214 11.8855 13.9125 11.7987 14.4161 11.6602C15.2714 11.4238 15.9429 10.7276 16.1714 9.84118C16.2804 9.42382 16.3571 8.86796 16.4107 8.20129C16.45 7.71745 16.475 7.20406 16.4893 6.68883C16.4946 6.50969 16.4964 6.34164 16.4982 6.19206C16.4982 6.1385 16.5 6.09234 16.5 6.05171V5.94829ZM15.2143 6.04432C15.2143 6.0831 15.2143 6.12558 15.2125 6.17544C15.2107 6.31948 15.2071 6.4783 15.2036 6.65005C15.1911 7.14127 15.1661 7.6325 15.1286 8.08864C15.0804 8.68329 15.0125 9.17082 14.9286 9.49769C14.8179 9.92428 14.4929 10.2622 14.0821 10.3749C13.7071 10.4783 12.7625 10.5614 11.4786 10.6113C10.8286 10.6371 10.1286 10.6537 9.43036 10.663C9.18571 10.6667 8.95893 10.6685 8.75536 10.6685H8.24464L7.56964 10.663C6.87143 10.6537 6.17321 10.6371 5.52143 10.6113C4.2375 10.5596 3.29107 10.4783 2.91786 10.3749C2.50714 10.2604 2.18214 9.92428 2.07143 9.49769C1.9875 9.17082 1.91964 8.68329 1.87143 8.08864C1.83393 7.6325 1.81071 7.14127 1.79643 6.65005C1.79107 6.4783 1.78929 6.31764 1.7875 6.17544C1.7875 6.12558 1.78571 6.08126 1.78571 6.04432V5.95568C1.78571 5.9169 1.78571 5.87442 1.7875 5.82456C1.78929 5.68052 1.79286 5.5217 1.79643 5.34995C1.80893 4.85873 1.83393 4.3675 1.87143 3.91136C1.91964 3.31671 1.9875 2.82918 2.07143 2.50231C2.18214 2.07572 2.50714 1.73777 2.91786 1.62512C3.29286 1.5217 4.2375 1.4386 5.52143 1.38873C6.17143 1.36288 6.87143 1.34626 7.56964 1.33703C7.81429 1.33333 8.04107 1.33149 8.24464 1.33149H8.75536L9.43036 1.33703C10.1286 1.34626 10.8268 1.36288 11.4786 1.38873C12.7625 1.44044 13.7089 1.5217 14.0821 1.62512C14.4929 1.73961 14.8179 2.07572 14.9286 2.50231C15.0125 2.82918 15.0804 3.31671 15.1286 3.91136C15.1661 4.3675 15.1893 4.85873 15.2036 5.34995C15.2089 5.5217 15.2107 5.68236 15.2125 5.82456C15.2125 5.87442 15.2143 5.91874 15.2143 5.95568V6.04432ZM6.91071 8.47461L11.0536 5.98153L6.91071 3.52539V8.47461Z" fill="white"/>
</svg>
