<svg width="36" height="36" viewBox="0 0 36 36" fill="none" xmlns="http://www.w3.org/2000/svg">
<path d="M34.491 22.5709C34.4596 22.5289 34.4257 22.4897 34.3894 22.4521C33.3429 21.1436 31.4511 20.8807 30.1318 21.8709C28.2306 23.2722 24.9779 25.6301 23.8922 26.4171L19.1498 26.0453L22.0515 25.4101C23.6057 25.184 24.72 23.8126 24.6527 22.1938C24.6523 22.1767 24.6511 22.1595 24.6494 22.1428C24.5147 20.5252 23.2004 19.3057 21.5927 19.3057H12.8172C12.1041 19.3057 11.4388 19.4881 10.8396 19.8477C10.8156 19.8624 10.7919 19.8775 10.7686 19.8938L1.4217 26.4245C0.867428 26.8118 0.731936 27.5755 1.11922 28.1293C1.50615 28.684 2.27023 28.8199 2.82409 28.4317L12.1318 21.9285C12.3392 21.8113 12.5637 21.7537 12.8175 21.7537H21.593C21.9187 21.7537 22.1677 21.9856 22.2069 22.3202C22.2098 22.6149 22.051 22.9423 21.6861 22.988C21.6494 22.9925 21.6126 22.9986 21.5763 23.0068L16.3518 24.1496C15.944 24.239 15.6098 24.5296 15.4649 24.921C15.32 25.3129 15.3844 25.7512 15.6363 26.0843L17.024 27.921C17.2351 28.2005 17.5559 28.3765 17.9053 28.4038L24.1502 28.8936C24.4391 28.9144 24.7285 28.8348 24.9636 28.6646C25.0064 28.6336 29.2804 25.5401 31.5926 23.836C31.8567 23.6381 32.2767 23.7132 32.4901 23.9989C32.5138 24.0303 32.5391 24.0609 32.5656 24.0895C32.7301 24.3585 32.6672 24.7034 32.4065 24.8989L24.1237 31.1419C23.88 31.3244 23.6262 31.3938 23.3359 31.3554L11.2543 29.8452C10.9245 29.804 10.5931 29.8983 10.3343 30.1064L5.72209 33.8211C5.19516 34.2456 5.11227 35.0166 5.53639 35.5431C5.77805 35.8435 6.13271 35.9995 6.49067 35.9995C6.76046 35.9995 7.03187 35.9109 7.25764 35.7293L11.4654 32.3403L23.0218 33.7848C23.9434 33.9076 24.8315 33.6713 25.5944 33.0999L33.8785 26.857C35.229 25.844 35.5037 23.9215 34.491 22.5709Z" fill="white"/>
<path d="M23.5917 4.24503C22.9153 4.24503 22.3672 4.79318 22.3672 5.46952V12.8165C22.3672 13.4928 22.9153 14.041 23.5917 14.041C24.268 14.041 24.8162 13.4928 24.8162 12.8165V5.46952C24.8162 4.79318 24.268 4.24503 23.5917 4.24503Z" fill="white"/>
<path d="M27.2648 7.91797H19.9179C19.2415 7.91797 18.6934 8.46612 18.6934 9.14246C18.6934 9.81879 19.2415 10.3669 19.9179 10.3669H27.2648C27.9411 10.3669 28.4893 9.81879 28.4893 9.14246C28.4893 8.46612 27.9411 7.91797 27.2648 7.91797Z" fill="white"/>
<path d="M23.5917 0C18.5501 0 14.4492 4.10126 14.4492 9.14287C14.4492 14.1845 18.5501 18.2857 23.5917 18.2857C28.6329 18.2857 32.7345 14.1846 32.7345 9.14287C32.7345 4.10119 28.6333 0 23.5917 0ZM23.5917 15.8368C19.9006 15.8368 16.8982 12.8339 16.8982 9.14287C16.8982 5.45182 19.9007 2.44898 23.5917 2.44898C27.2827 2.44898 30.2856 5.45182 30.2856 9.14287C30.2856 12.8339 27.2827 15.8368 23.5917 15.8368Z" fill="white"/>
</svg>
