<svg width="36" height="36" viewBox="0 0 36 36" fill="none" xmlns="http://www.w3.org/2000/svg">
<path d="M8.75183 4.5L8.55 5.56706L7.25625 12.9499V17.625H7.37786C7.55703 18.8936 7.99467 20.1105 8.6629 21.1981C9.33113 22.2857 10.2153 23.2202 11.2591 23.9421C6.93137 25.8253 3.78694 30.0286 3.41249 35.0009C3.37101 35.5516 3.82272 36 4.375 36H4.96117C5.51397 36 5.95703 35.5505 6.00827 35.0001C6.12278 33.7701 6.45097 32.5676 6.9802 31.449C7.65214 30.0288 8.6309 28.7805 9.84375 27.7969V28.6579L10.2073 29.0687L15.3823 34.3187L16.3125 35.2204L17.2427 34.3187L22.4177 29.0687L22.7812 28.6579V27.7969C23.9941 28.7805 24.9729 30.0288 25.6448 31.449C26.174 32.5676 26.5022 33.7701 26.6167 35.0001C26.668 35.5505 27.111 36 27.6638 36H28.25C28.8023 36 29.254 35.5516 29.2125 35.0009C28.8381 30.0287 25.6936 25.8264 21.3659 23.9408C22.4095 23.219 23.2936 22.2847 23.9619 21.1974C24.6301 20.11 25.0678 18.8934 25.2471 17.625H25.3688V12.9486L24.075 5.56706L23.8732 4.5H8.75183ZM10.9357 7.125H21.6893L22.7812 13.4001V15H9.84375V13.4001L10.9357 7.125ZM15.0188 8.4375V9.75H13.725V12.375H15.0188V13.6875H17.6063V12.375H18.9V9.75H17.6063V8.4375H15.0188ZM9.96536 17.625H22.6596C22.3609 19.1085 21.5658 20.4416 20.409 21.3984C19.2523 22.3552 17.805 22.8769 16.3125 22.875C14.82 22.8769 13.3727 22.3552 12.216 21.3984C11.0592 20.4416 10.2641 19.1085 9.96536 17.625ZM16.3125 25.5C17.6409 25.4929 18.9583 25.7438 20.1938 26.2389V27.5514L16.3125 31.4889L12.4313 27.5514V26.2389C13.6667 25.7438 14.9841 25.4929 16.3125 25.5Z" fill="white"/>
</svg>
