<svg width="36" height="36" viewBox="0 0 36 36" fill="none" xmlns="http://www.w3.org/2000/svg">
<path d="M3.14136 16.6297C3.12338 16.4226 3.14865 16.2141 3.21555 16.0172C3.28246 15.8204 3.38955 15.6396 3.53003 15.4864C3.67051 15.3331 3.84131 15.2108 4.03159 15.127C4.22187 15.0433 4.42748 15 4.63536 15H7.49961C7.89744 15 8.27897 15.158 8.56027 15.4393C8.84158 15.7206 8.99961 16.1022 8.99961 16.5V30.75C8.99961 31.1478 8.84158 31.5294 8.56027 31.8107C8.27897 32.092 7.89744 32.25 7.49961 32.25H5.87511C5.49969 32.2501 5.13787 32.1094 4.86113 31.8557C4.58439 31.602 4.41284 31.2538 4.38036 30.8797L3.14136 16.6297V16.6297ZM13.4996 16.0312C13.4996 15.4042 13.8896 14.8432 14.4559 14.5762C15.6926 13.9927 17.7994 12.8205 18.7496 11.2357C19.9744 9.19275 20.2054 5.502 20.2429 4.65675C20.2481 4.53825 20.2451 4.41975 20.2609 4.30275C20.4641 2.838 23.2909 4.54875 24.3746 6.35775C24.9634 7.33875 25.0384 8.628 24.9769 9.63525C24.9101 10.7122 24.5944 11.7525 24.2846 12.786L23.6246 14.9887H31.7674C31.9991 14.9887 32.2277 15.0424 32.4352 15.1456C32.6428 15.2488 32.8236 15.3986 32.9634 15.5834C33.1033 15.7682 33.1985 15.9829 33.2414 16.2106C33.2844 16.4384 33.274 16.6729 33.2111 16.896L29.1836 31.158C29.0947 31.4725 28.9055 31.7494 28.6447 31.9466C28.384 32.1437 28.066 32.2502 27.7391 32.25H14.9996C14.6018 32.25 14.2203 32.092 13.939 31.8107C13.6577 31.5294 13.4996 31.1478 13.4996 30.75V16.0312Z" stroke="white" stroke-width="2.7" stroke-linecap="round" stroke-linejoin="round"/>
</svg>
