<svg width="78" height="322" viewBox="0 0 78 322" fill="none" xmlns="http://www.w3.org/2000/svg">
<path d="M35.0588 312.888C17.9844 314.543 0.528805 300.521 0.027149 283.055C-0.195332 277.751 0.952582 272.478 3.36017 267.747C0.197734 277.603 0.719456 289.248 7.37342 297.579C14.0274 305.74 24.7387 311.551 35.4662 309.976C38.8895 312.225 40.6051 316.339 44.2692 318.227C46.7695 319.351 49.1975 317.826 51.3165 316.612C55.6127 319.162 59.9891 316.13 64.2251 315.077C67.8992 314.324 72.5365 316.371 75.3378 313.07C76.6434 311.651 77.5176 309.889 77.8581 307.991C77.7277 309.215 77.6072 310.452 77.5069 311.676C76.2869 313.839 74.3547 315.512 72.0394 316.411C69.7242 317.309 67.169 317.378 64.809 316.604C60.6232 318.46 56.1966 320.659 51.489 319.485C49.1395 320.896 46.336 321.345 43.6632 320.739C39.7563 319.493 37.7677 315.639 35.0588 312.888Z" fill="white" fill-opacity="0.8"/>
<path d="M12.1216 265.108C11.9308 262.404 11.9308 259.691 12.1216 256.987C19.8411 253.514 27.4803 249.839 35.3783 246.779C27.5084 243.737 19.8089 240.316 12.1416 236.812C12.1216 234.051 12.1115 231.282 12.1316 228.511C25.0195 228.522 37.908 228.525 50.7972 228.521C50.7865 231.441 50.7732 234.356 50.7571 237.264C44.6851 237.304 38.601 237.124 32.5289 237.314C36.8151 239.543 41.3721 241.199 45.6583 243.436C45.6783 245.626 45.7084 247.813 45.7285 250.002C41.3521 252.171 36.795 253.937 32.4848 256.255C38.5869 256.355 44.6911 256.215 50.7932 256.255C50.7731 259.166 50.7732 262.074 50.7431 264.987C37.8686 265.178 24.9901 264.997 12.1216 265.108Z" fill="white" fill-opacity="0.8"/>
<path d="M12.0641 221.423C12.0641 221.423 11.6928 203.115 12.1844 193.971C14.7148 193.991 17.2532 193.991 19.8096 193.991C19.8297 200.324 19.8096 206.648 19.8297 212.981H27.6094C27.6094 207.602 27.5492 202.222 27.6094 196.84C30.0294 196.86 32.4473 196.85 34.8673 196.84C34.8673 202.16 34.9075 207.475 34.8673 212.781C37.5482 212.941 40.2371 212.981 42.9279 213.052C43.1788 206.739 42.637 200.394 43.1688 194.091C45.7091 193.92 48.2475 194.011 50.7939 193.991C50.7237 203.155 50.7638 212.319 50.7939 221.481C37.8773 221.413 24.9787 221.433 12.0641 221.423Z" fill="white" fill-opacity="0.8"/>
<path d="M12.1619 182.85C12.1619 182.85 11.7405 165.113 12.1619 156.26C22.5101 156.23 32.8602 156.32 43.2084 156.22C43.2585 154.905 43.3087 153.589 43.3689 152.265C48.8189 152.315 54.2589 152.265 59.7109 152.295C59.741 154.703 59.8413 157.111 59.6808 159.493C56.713 159.74 53.7324 159.797 50.7573 159.663C50.7072 167.934 50.8075 176.196 50.7373 184.457C53.7291 184.387 56.719 184.377 59.7109 184.377C59.741 186.847 59.751 189.315 59.761 191.775C54.4314 191.835 49.0918 191.665 43.7602 191.755C42.9375 189.748 43.2887 186.706 40.8486 185.833C39.0944 184.919 37.1848 184.34 35.218 184.128C27.5487 183.405 19.8566 182.981 12.1418 182.854L12.1619 182.85ZM19.8513 175.335C27.6771 176.208 35.7819 175.355 43.2686 178.246C43.2184 173.81 43.2385 169.373 43.2485 164.936C35.4488 164.856 27.649 164.906 19.8513 164.876C19.8513 168.364 19.8513 171.847 19.8714 175.331L19.8513 175.335Z" fill="white" fill-opacity="0.8"/>
<path d="M12.0406 146.873C12.0406 146.873 11.9102 141.022 12.1209 138.09C20.1915 138.15 28.2622 138.09 36.3328 138.201C28.1919 132.971 20.0611 127.712 12.141 122.148C12.0105 119.758 11.9202 117.36 11.9403 114.95C24.879 114.97 37.8257 115.01 50.7665 114.95C50.7665 117.85 50.7564 120.748 50.7364 123.642C42.9868 123.663 35.2272 123.572 27.4796 123.703C35.4298 128.571 43.1593 133.79 50.7564 139.202C50.7658 141.772 50.7524 144.335 50.7163 146.891C37.8351 146.846 24.9432 146.84 12.0406 146.873Z" fill="white" fill-opacity="0.8"/>
<path d="M11.8503 107.465C11.8503 107.465 11.8201 101.734 11.8302 98.8527C17.0895 98.8025 22.3589 98.8226 27.6303 98.8326C27.5701 95.5598 28.0317 91.3438 24.799 89.3071C20.7383 87.5124 16.5301 86.0716 12.2215 85.0009C12.172 82.1702 12.182 79.3295 12.2516 76.4788C18.4841 78.969 25.9528 79.3502 30.7908 84.5053C32.0368 82.8358 33.6741 81.4983 35.5585 80.6104C40.5169 78.7142 45.706 77.4781 50.7647 75.8628C50.7747 78.8145 50.7547 81.7642 50.7446 84.7059C45.997 86.3112 40.7376 86.9353 36.5518 89.855C34.5953 92.3753 34.8762 95.7664 34.7458 98.7583C40.0955 98.8687 45.4451 98.8085 50.7988 98.8085C50.7787 101.699 50.762 104.584 50.7487 107.461C37.7778 107.545 24.8151 107.501 11.8503 107.465Z" fill="white" fill-opacity="0.8"/>
<path d="M11.9899 60.0862C11.7538 57.3683 12.0851 54.6309 12.9629 52.0478C13.8406 49.4646 15.2456 47.0921 17.0887 45.0807C19.2788 42.6838 22.0351 40.8747 25.1055 39.8191C28.1758 38.7634 31.4619 38.495 34.6629 39.0384C37.8638 39.5818 40.8773 40.9195 43.4272 42.9292C45.9772 44.9389 47.9822 47.5563 49.2586 50.5416C50.535 53.527 51.042 56.7848 50.7332 60.0168C50.4243 63.2488 49.3095 66.3517 47.4908 69.0413C45.6721 71.7308 43.2077 73.921 40.3232 75.4114C37.4388 76.9018 34.2265 77.6446 30.9806 77.5719C26.236 77.4462 21.6976 75.6055 18.206 72.3906C14.7143 69.1756 12.506 64.8044 11.9899 60.0862ZM19.1876 60.919C19.7326 63.2677 20.9442 65.4091 22.6768 67.0859C24.4094 68.7626 26.5894 69.9034 28.9548 70.3711C31.3201 70.8387 33.7702 70.6134 36.0106 69.7222C38.251 68.8309 40.1863 67.3117 41.5841 65.3471C42.9818 63.3824 43.7825 61.0559 43.8899 58.6471C43.9973 56.2384 43.4069 53.8499 42.1895 51.7687C40.9722 49.6874 39.1797 48.002 37.0275 46.9149C34.8754 45.8278 32.4551 45.3852 30.0575 45.6405C22.946 46.385 17.2191 53.8817 19.1876 60.927V60.919Z" fill="white" fill-opacity="0.8"/>
<path d="M12.0714 36.1849C11.8958 33.4929 11.926 30.7915 12.1617 28.1042C19.8712 24.6929 27.5104 21.0971 35.3382 17.9366C27.4682 14.9648 19.8872 11.3428 12.1316 8.07003C12.1116 5.38918 12.1116 2.70037 12.0514 0.00949097C24.96 0.0295563 37.8686 -0.0105591 50.7672 0.0295753C50.7772 2.85089 50.7672 5.6601 50.727 8.47138C44.665 8.49145 38.601 8.33094 32.539 8.49147C36.8251 10.6606 41.3019 12.4164 45.6182 14.5113C45.6583 16.7507 45.6984 18.9982 45.7084 21.2275C41.1514 23.3746 36.5141 25.3632 31.9169 27.4099C38.1997 27.5805 44.4844 27.43 50.7672 27.4902C50.7672 30.3817 50.7672 33.2612 50.7371 36.1427C37.8485 36.1749 24.96 36.1347 12.0714 36.1849Z" fill="white" fill-opacity="0.8"/>
<path d="M21.6172 60.5497C21.6373 58.9645 21.6673 57.3672 21.6974 55.7719C24.0773 55.8121 26.4552 55.8622 28.835 55.9425C28.9654 53.4322 29.126 50.926 29.2564 48.4137C30.7112 48.4337 32.178 48.4338 33.6429 48.4338C33.6736 50.9233 33.6937 53.4128 33.7031 55.9024C36.111 55.8622 38.519 55.8355 40.9269 55.8221C40.947 57.3973 40.957 58.9846 40.9771 60.5397C38.537 60.5397 36.109 60.5196 33.679 60.4594C33.679 62.9583 33.6589 65.4479 33.6188 67.9281C32.1439 67.9281 30.6771 67.9281 29.2223 67.9181C29.0216 65.4379 28.9012 62.9496 28.8511 60.4594C26.4351 60.5156 24.0271 60.5497 21.6172 60.5497Z" fill="white" fill-opacity="0.8"/>
<path d="M35.1464 305.443C22.2378 306.847 8.65897 297.041 6.98143 283.942C6.51539 280.175 6.85742 276.353 7.98475 272.729C30.7098 272.809 53.4348 272.729 76.1518 272.769C76.1217 276.874 76.1317 280.98 76.1417 285.085C74.7893 286.332 73.6439 287.785 72.7485 289.392C70.0075 295.755 74.8053 302.993 71.3138 309.187C69.1065 311.796 65.9942 308.766 63.2873 308.986C62.0087 309.762 60.7753 310.611 59.5931 311.527C59.0112 311.035 58.4393 310.523 57.8774 310.032C57.0748 311.085 56.2621 312.119 55.4173 313.134C53.7318 312.02 52.0542 310.875 50.3385 309.811C49.0921 311.362 47.7042 312.793 46.1929 314.087C42.6953 311.089 40.2874 305.76 35.1464 305.443Z" fill="white" fill-opacity="0.8"/>
<path d="M73.1464 258.678H63.7734V263.683H73.1464V265.108H62.4711V257.222H73.1464V258.678ZM65.4771 254.448L66.2797 254.294C65.9892 253.833 65.7504 253.342 65.5674 252.829C65.4628 252.516 65.4053 252.19 65.3968 251.86C65.3696 251.179 65.6085 250.515 66.063 250.008C66.3393 249.749 66.667 249.551 67.0248 249.427C67.3826 249.303 67.7625 249.255 68.1398 249.287H70.4956C70.8649 249.264 71.2352 249.315 71.584 249.439C71.9328 249.563 72.2527 249.756 72.5243 250.008C72.7695 250.272 72.9589 250.583 73.0813 250.923C73.2037 251.262 73.2565 251.622 73.2367 251.982C73.2329 252.309 73.2047 252.635 73.1524 252.958C73.0687 253.415 72.9341 253.862 72.7511 254.29H76.2065V255.61H65.4771V254.448ZM71.4969 254.294C71.6657 253.907 71.7955 253.503 71.8842 253.09C71.9451 252.768 71.976 252.442 71.9765 252.115C71.9777 251.919 71.9541 251.723 71.9063 251.533C71.8624 251.358 71.777 251.196 71.6575 251.061C71.5255 250.918 71.361 250.81 71.1779 250.744C70.9368 250.66 70.6825 250.621 70.4274 250.628H68.2201C68.0028 250.603 67.7826 250.623 67.5734 250.687C67.3642 250.751 67.1704 250.857 67.0041 250.999C66.772 251.276 66.653 251.63 66.671 251.99C66.6754 252.164 66.7017 252.335 66.7493 252.502C66.8047 252.706 66.8717 252.907 66.9499 253.104C67.0338 253.319 67.1296 253.528 67.2369 253.732C67.3368 253.924 67.448 254.111 67.57 254.29L71.4969 254.294ZM70.4274 241.498C70.8371 241.49 71.243 241.577 71.6133 241.753C71.9525 241.918 72.2512 242.155 72.4882 242.449C72.7298 242.751 72.9134 243.095 73.03 243.464C73.1563 243.86 73.2192 244.273 73.2166 244.688C73.2201 245.109 73.1571 245.527 73.03 245.928C72.916 246.295 72.732 246.635 72.4882 246.932C72.2489 247.217 71.9504 247.447 71.6133 247.606C71.2418 247.777 70.8364 247.862 70.4274 247.855H68.2041C67.7944 247.863 67.3884 247.775 67.0181 247.6C66.6801 247.435 66.3796 247.203 66.1352 246.918C65.8861 246.622 65.6966 246.282 65.5774 245.914C65.4442 245.517 65.3765 245.101 65.3767 244.682C65.374 244.248 65.4418 243.816 65.5774 243.404C65.6966 243.037 65.8861 242.696 66.1352 242.401C66.3764 242.118 66.6782 241.893 67.0181 241.743C67.3925 241.582 67.7967 241.502 68.2041 241.51L70.4274 241.498ZM68.4208 242.814C68.1299 242.806 67.8409 242.864 67.576 242.985C67.3568 243.088 67.1634 243.239 67.0101 243.426C66.8676 243.604 66.7625 243.809 66.7011 244.028C66.6459 244.234 66.6196 244.447 66.6228 244.66C66.6232 244.88 66.6542 245.099 66.7151 245.31C66.7765 245.53 66.8816 245.735 67.0242 245.912C67.1775 246.1 67.3708 246.251 67.59 246.354C67.8549 246.474 68.1439 246.533 68.4348 246.524H70.1665C70.4551 246.532 70.7423 246.482 71.0113 246.378C71.2283 246.289 71.422 246.152 71.5772 245.977C71.7239 245.807 71.8296 245.606 71.8862 245.389C71.9513 245.151 71.9844 244.906 71.9845 244.66C71.9836 244.445 71.9525 244.231 71.8922 244.024C71.8309 243.805 71.7258 243.6 71.5832 243.422C71.4299 243.235 71.2365 243.084 71.0173 242.981C70.7503 242.861 70.4592 242.804 70.1665 242.814H68.4208ZM76.2145 236.539H73.2246C73.2094 237.09 73.0966 237.633 72.8915 238.145C72.7234 238.555 72.4696 238.924 72.1471 239.228C71.8455 239.501 71.489 239.706 71.1016 239.83C70.707 239.962 70.2937 240.03 69.8776 240.031H68.9164C68.4697 240.035 68.0253 239.967 67.6001 239.83C67.1852 239.696 66.8026 239.477 66.4764 239.188C66.1404 238.884 65.8735 238.512 65.6938 238.097C65.486 237.603 65.3756 237.075 65.3687 236.539H62.4551V235.229H65.3687C65.3775 234.701 65.4801 234.18 65.6717 233.688C65.8343 233.277 66.0826 232.904 66.4001 232.596C66.7066 232.306 67.0711 232.085 67.4696 231.946C67.8854 231.8 68.3232 231.727 68.7639 231.729H69.8796C70.2947 231.728 70.7066 231.801 71.0956 231.946C71.4819 232.09 71.8349 232.311 72.133 232.596C72.4525 232.907 72.7075 233.278 72.8835 233.688C73.091 234.176 73.2067 234.699 73.2246 235.229H76.2145V236.539ZM66.5827 236.539C66.5709 236.878 66.6397 237.215 66.7834 237.523C66.9116 237.783 67.0935 238.012 67.3171 238.197C67.5388 238.375 67.794 238.507 68.0676 238.584C68.3519 238.667 68.6464 238.709 68.9425 238.709H69.6388C69.9283 238.71 70.217 238.679 70.4996 238.616C70.7648 238.558 71.0137 238.442 71.228 238.275C71.4517 238.095 71.6321 237.868 71.7558 237.609C71.9093 237.272 71.9959 236.909 72.0106 236.539H66.5827ZM72.0207 235.223C72.0341 234.871 71.9654 234.521 71.82 234.2C71.6945 233.938 71.5121 233.708 71.2862 233.525C71.0643 233.353 70.8086 233.229 70.5358 233.162C70.2498 233.09 69.9559 233.053 69.6609 233.054H68.9626C68.667 233.053 68.3728 233.093 68.0877 233.17C67.8138 233.243 67.5581 233.372 67.3372 233.549C67.1136 233.734 66.9317 233.964 66.8034 234.224C66.6579 234.538 66.5892 234.881 66.6028 235.227L72.0207 235.223ZM69.7993 228.948H70.311C70.5802 228.957 70.8478 228.904 71.0936 228.794C71.3003 228.695 71.481 228.549 71.6213 228.368C71.7629 228.184 71.8659 227.973 71.9243 227.748C71.9864 227.513 72.0175 227.271 72.0166 227.028C72.009 226.722 71.9569 226.42 71.8621 226.129C71.7404 225.757 71.5344 225.417 71.2601 225.138L72.1752 224.301C72.5572 224.66 72.8422 225.11 73.0039 225.609C73.1519 226.078 73.2277 226.567 73.2286 227.058C73.2306 227.478 73.1704 227.896 73.0501 228.298C72.9406 228.671 72.7615 229.021 72.5223 229.328C72.2876 229.623 71.9884 229.862 71.6474 230.024C71.2641 230.201 70.8455 230.288 70.4234 230.279H68.3887C67.9668 230.284 67.548 230.206 67.1566 230.048C66.7996 229.903 66.4774 229.684 66.2115 229.406C65.9466 229.125 65.7417 228.793 65.6095 228.431C65.4689 228.03 65.4009 227.607 65.4088 227.182C65.4042 226.756 65.472 226.332 65.6095 225.928C65.7329 225.565 65.928 225.231 66.1834 224.945C66.4349 224.669 66.7447 224.451 67.0904 224.309C67.4726 224.154 67.882 224.078 68.2944 224.084H69.8134L69.7993 228.948ZM68.4208 225.431C68.1408 225.423 67.8621 225.47 67.6001 225.569C67.3861 225.653 67.193 225.782 67.0342 225.948C66.8851 226.107 66.774 226.298 66.7091 226.506C66.641 226.724 66.6071 226.952 66.6088 227.18C66.607 227.407 66.6437 227.632 66.7171 227.847C66.7885 228.052 66.8989 228.241 67.0422 228.405C67.1932 228.574 67.3814 228.707 67.592 228.792C67.8411 228.89 68.1071 228.937 68.3746 228.93H68.7157V225.429L68.4208 225.431ZM65.3847 219.76C65.3866 219.302 65.4466 218.846 65.5633 218.403C65.6925 217.927 65.9591 217.498 66.3299 217.171L67.3332 217.962C67.0576 218.226 66.8509 218.553 66.7312 218.915C66.6594 219.17 66.6202 219.433 66.6148 219.698C66.6172 219.902 66.6483 220.104 66.7071 220.3C66.7683 220.511 66.8736 220.706 67.0161 220.874C67.1722 221.052 67.3653 221.195 67.582 221.291C67.8483 221.406 68.1367 221.462 68.4268 221.454H70.1665C70.4558 221.462 70.7436 221.409 71.0113 221.299C71.2269 221.208 71.4201 221.071 71.5772 220.898C71.7206 220.734 71.8261 220.541 71.8862 220.332C71.9475 220.123 71.9785 219.907 71.9785 219.69C71.9701 219.408 71.9235 219.13 71.8401 218.861C71.7506 218.541 71.5799 218.25 71.3444 218.016L72.2735 217.196C72.6178 217.529 72.8737 217.943 73.0179 218.399C73.1504 218.828 73.2181 219.275 73.2186 219.724C73.2243 220.146 73.1564 220.565 73.0179 220.964C72.8937 221.319 72.7046 221.647 72.4601 221.933C72.2238 222.206 71.9298 222.424 71.5993 222.569C71.2501 222.722 70.8726 222.798 70.4916 222.794H68.2181C67.8119 222.8 67.4094 222.715 67.0402 222.545C66.6982 222.387 66.3923 222.16 66.1412 221.879C65.8909 221.596 65.6987 221.267 65.5754 220.91C65.4471 220.54 65.3826 220.151 65.3847 219.76ZM65.3847 213.114C65.3866 212.656 65.4466 212.2 65.5633 211.758C65.6925 211.281 65.9591 210.852 66.3299 210.525L67.3332 211.316C67.0576 211.58 66.8509 211.907 66.7312 212.269C66.6593 212.524 66.6202 212.787 66.6148 213.052C66.6172 213.256 66.6483 213.458 66.7071 213.654C66.7683 213.865 66.8736 214.06 67.0161 214.228C67.1722 214.406 67.3653 214.549 67.582 214.645C67.8483 214.76 68.1367 214.816 68.4268 214.808H70.1665C70.4558 214.816 70.7436 214.763 71.0113 214.653C71.2269 214.562 71.4201 214.425 71.5772 214.252C71.7205 214.088 71.826 213.895 71.8862 213.686C71.9475 213.477 71.9785 213.261 71.9785 213.044C71.9701 212.763 71.9235 212.484 71.8401 212.215C71.7506 211.895 71.5799 211.604 71.3444 211.37L72.2775 210.548C72.6218 210.881 72.8777 211.295 73.022 211.752C73.1544 212.181 73.2221 212.627 73.2226 213.076C73.2284 213.498 73.1604 213.917 73.022 214.316C72.8978 214.671 72.7086 215 72.4641 215.285C72.2278 215.558 71.9338 215.776 71.6033 215.921C71.2542 216.074 70.8766 216.15 70.4956 216.146H68.2181C67.8119 216.152 67.4094 216.067 67.0402 215.897C66.6982 215.739 66.3923 215.512 66.1412 215.231C65.8909 214.948 65.6987 214.619 65.5754 214.262C65.4473 213.893 65.3828 213.505 65.3847 213.114ZM71.0033 208.047L69.2535 206.902L65.473 204.345V203.091H73.1424V204.453H67.6001V204.528L69.3819 205.69L73.1464 208.234V209.458H65.4771V208.11H71.0073L71.0033 208.047ZM70.4294 195.219C70.8391 195.211 71.245 195.298 71.6153 195.474C71.9545 195.639 72.2532 195.877 72.4902 196.17C72.7318 196.472 72.9154 196.817 73.032 197.185C73.1583 197.581 73.2213 197.994 73.2186 198.409C73.2221 198.83 73.1591 199.249 73.032 199.65C72.918 200.016 72.734 200.357 72.4902 200.653C72.2509 200.938 71.9524 201.168 71.6153 201.327C71.2438 201.498 70.8384 201.583 70.4294 201.576H68.2041C67.7944 201.584 67.3884 201.497 67.0181 201.321C66.6801 201.157 66.3796 200.924 66.1352 200.639C65.8861 200.344 65.6966 200.003 65.5774 199.636C65.4442 199.238 65.3765 198.822 65.3767 198.403C65.374 197.969 65.4418 197.538 65.5774 197.125C65.6966 196.758 65.8861 196.417 66.1352 196.122C66.3764 195.839 66.6782 195.614 67.0181 195.464C67.3925 195.303 67.7967 195.224 68.2041 195.231L70.4294 195.219ZM68.4228 196.535C68.1319 196.527 67.8429 196.585 67.578 196.706C67.3588 196.809 67.1654 196.96 67.0121 197.147C66.8696 197.325 66.7645 197.53 66.7031 197.749C66.6428 197.956 66.6117 198.17 66.6108 198.385C66.6111 198.605 66.6422 198.824 66.7031 199.036C66.7645 199.255 66.8696 199.46 67.0121 199.638C67.1654 199.825 67.3588 199.976 67.578 200.079C67.8429 200.2 68.1319 200.258 68.4228 200.25H70.1665C70.4551 200.257 70.7423 200.208 71.0113 200.103C71.2283 200.015 71.422 199.877 71.5772 199.702C71.7239 199.532 71.8296 199.331 71.8862 199.114C71.9493 198.876 71.9804 198.631 71.9785 198.385C71.9776 198.17 71.9465 197.956 71.8862 197.749C71.8249 197.53 71.7197 197.325 71.5772 197.147C71.4239 196.96 71.2305 196.809 71.0113 196.706C70.7464 196.585 70.4575 196.527 70.1665 196.535H68.4228ZM73.1323 188.709H69.8776V192.37H73.1464V193.692H65.4771V192.36H68.6676V188.703H65.4771V187.355H73.1464L73.1323 188.709ZM72.3879 181.01C72.6683 181.479 72.8893 181.981 73.046 182.505C73.1376 182.846 73.1868 183.197 73.1925 183.55C73.2252 184.202 73.0028 184.841 72.5725 185.332C72.3548 185.558 72.0913 185.734 71.7999 185.849C71.5084 185.963 71.1958 186.015 70.8829 185.999C70.5058 186.011 70.1334 185.911 69.8134 185.712C69.5307 185.527 69.2906 185.284 69.109 184.999C68.9295 184.718 68.7986 184.409 68.7218 184.084C68.6492 183.798 68.6102 183.504 68.6054 183.209V180.962H68.0174C67.8076 180.939 67.5952 180.967 67.3992 181.046C67.2032 181.124 67.0296 181.25 66.8937 181.411C66.6588 181.798 66.5482 182.247 66.5767 182.698C66.5839 183.028 66.6228 183.358 66.6931 183.681C66.7948 184.114 67.0015 184.516 67.2951 184.851L66.2917 185.501C65.9364 185.061 65.6822 184.547 65.5473 183.998C65.4392 183.537 65.382 183.066 65.3767 182.593C65.3115 181.796 65.5462 181.003 66.0349 180.37C66.302 180.112 66.6211 179.913 66.971 179.789C67.3208 179.664 67.6934 179.615 68.0636 179.646H73.1444V180.807L72.432 180.962L72.3879 181.01ZM69.707 180.964V182.997C69.7078 183.175 69.7206 183.354 69.7451 183.53C69.7691 183.715 69.8213 183.895 69.8997 184.064C69.98 184.228 70.1035 184.367 70.2568 184.465C70.4451 184.582 70.664 184.638 70.8849 184.628C71.0448 184.639 71.205 184.61 71.351 184.544C71.497 184.477 71.6243 184.376 71.7217 184.249C71.9171 183.964 72.015 183.624 72.0006 183.28C71.9986 183.076 71.9702 182.874 71.9163 182.678C71.8626 182.467 71.7956 182.26 71.7156 182.058C71.6327 181.856 71.5424 181.662 71.4448 181.476L71.1698 180.966L69.707 180.964ZM66.6549 175.833H68.7318C69.3976 175.82 70.0626 175.883 70.7143 176.02C71.1739 176.116 71.6141 176.289 72.0166 176.531C72.3412 176.733 72.6206 176.999 72.8373 177.314C73.049 177.628 73.2259 177.965 73.3651 178.317L72.2956 178.859C72.1759 178.596 72.0364 178.342 71.8782 178.1C71.7241 177.876 71.5174 177.693 71.2762 177.567C70.9616 177.408 70.6223 177.303 70.2729 177.258C69.7338 177.182 69.1897 177.149 68.6455 177.157H65.4771V171.82H73.1464V173.152H66.6549V175.833ZM71.0093 168.705L69.2595 167.56L65.4791 165.003V163.749H73.1484V165.118H67.6001V165.198L69.3819 166.36L73.1464 168.898V170.122H65.4771V168.774H71.0073L71.0093 168.705ZM71.3344 161.965C71.5766 161.689 71.7566 161.364 71.8621 161.012C71.9688 160.688 72.0263 160.35 72.0327 160.009C72.0393 159.729 72.0055 159.45 71.9324 159.18C71.8785 158.985 71.7894 158.801 71.6695 158.638C71.5729 158.508 71.4453 158.404 71.2983 158.335C71.1646 158.275 71.0196 158.243 70.8729 158.243C70.7131 158.233 70.5536 158.265 70.4098 158.336C70.266 158.406 70.1428 158.512 70.0522 158.644C69.857 158.951 69.7597 159.31 69.7732 159.674V160.727H68.6736V159.644C68.695 159.297 68.587 158.954 68.3706 158.682C68.2786 158.573 68.1635 158.486 68.0337 158.427C67.9039 158.368 67.7627 158.339 67.6201 158.341C67.465 158.336 67.3115 158.375 67.1783 158.455C67.0451 158.535 66.9379 158.651 66.8697 158.791C66.7053 159.106 66.6226 159.458 66.6289 159.814C66.6315 160.131 66.6761 160.446 66.7613 160.751C66.8524 161.082 67.0193 161.387 67.2489 161.642L66.3339 162.463C65.994 162.103 65.7443 161.668 65.6055 161.193C65.4628 160.72 65.3898 160.229 65.3888 159.736C65.3817 159.339 65.4393 158.944 65.5593 158.566C65.6569 158.259 65.8152 157.974 66.0249 157.729C66.2108 157.515 66.4408 157.343 66.6991 157.226C66.9547 157.111 67.2318 157.053 67.5118 157.055C67.6461 157.056 67.7802 157.066 67.9131 157.085C68.0726 157.109 68.2272 157.158 68.3706 157.232C68.5343 157.315 68.6834 157.425 68.8121 157.557C68.9662 157.719 69.0851 157.912 69.1612 158.123C69.242 157.906 69.3632 157.706 69.5184 157.535C69.6523 157.388 69.8096 157.266 69.9839 157.171C70.1343 157.089 70.2958 157.029 70.4635 156.993C70.5955 156.965 70.7299 156.949 70.8648 156.947C71.1868 156.943 71.5059 157.007 71.8019 157.133C72.0896 157.26 72.3443 157.45 72.5464 157.691C72.7719 157.965 72.9405 158.28 73.042 158.62C73.1682 159.042 73.2284 159.482 73.2206 159.922C73.2227 160.422 73.1551 160.92 73.02 161.401C72.8744 161.904 72.618 162.367 72.2695 162.758L71.3344 161.965ZM68.2984 149.245L69.8796 150.082L72.0487 151.306V152.221L70.2428 153.224L68.4148 154.186V154.248H73.1564V155.596H65.4771V154.362L68.3907 152.813L70.4655 151.753L68.4047 150.654L65.4771 149.049V147.845H73.1464V149.193H68.2964L68.2984 149.245ZM71.0073 141.118L69.2575 139.973L65.4771 137.416V136.162H73.1464V137.525H67.6001V137.603L69.3819 138.765L73.1464 141.305V142.523H65.4771V141.175H71.0073V141.118ZM70.8207 124.821C71.1066 124.822 71.39 124.874 71.6575 124.975C71.9347 125.078 72.1896 125.233 72.4079 125.433C72.6376 125.645 72.8195 125.903 72.9417 126.191C73.0819 126.527 73.1503 126.889 73.1424 127.253V130.987H65.4771V127.285C65.4688 126.931 65.5266 126.579 65.6476 126.247C65.7494 125.977 65.9082 125.731 66.1132 125.527C66.3051 125.339 66.535 125.194 66.7874 125.101C67.0445 125.008 67.3164 124.961 67.59 124.963C67.8874 124.967 68.1795 125.042 68.4428 125.18C68.7415 125.334 68.9848 125.577 69.1391 125.876C69.2851 125.525 69.5511 125.237 69.8896 125.063C70.1779 124.912 70.4972 124.829 70.8227 124.821H70.8207ZM70.8207 126.169C70.6676 126.161 70.5149 126.19 70.3752 126.253C70.2355 126.316 70.1131 126.412 70.018 126.532C69.8315 126.762 69.7301 127.049 69.7311 127.345V129.638H71.9725V127.485C72.0047 127.124 71.8962 126.765 71.6695 126.482C71.5576 126.374 71.4246 126.291 71.2789 126.237C71.1331 126.183 70.9778 126.16 70.8227 126.169H70.8207ZM67.5981 126.293C67.4555 126.283 67.3128 126.312 67.1858 126.378C67.0587 126.443 66.9521 126.543 66.8777 126.665C66.728 126.912 66.6502 127.196 66.6529 127.485V129.638H68.5432V127.407C68.5583 127.117 68.4733 126.83 68.3024 126.594C68.2173 126.492 68.1094 126.412 67.9874 126.359C67.8654 126.306 67.7327 126.283 67.6001 126.291L67.5981 126.293ZM73.1464 116.638H65.4771V115.351H73.1464V116.638ZM70.7685 118.716C70.4693 118.719 70.1822 118.835 69.9659 119.041C69.8328 119.184 69.7316 119.353 69.669 119.537C69.6063 119.722 69.5837 119.917 69.6027 120.111V122.118H71.9725V120.111C71.9954 119.743 71.8882 119.379 71.6695 119.082C71.5577 118.955 71.4182 118.857 71.2619 118.793C71.1056 118.73 70.9367 118.704 70.7685 118.716ZM68.4509 122.094V120.065C68.4444 119.673 68.5048 119.283 68.6295 118.911C68.7327 118.602 68.8987 118.317 69.1171 118.074C69.3216 117.853 69.5733 117.681 69.8535 117.571C70.1467 117.455 70.4594 117.397 70.7745 117.4C71.0937 117.387 71.4121 117.441 71.7086 117.56C72.0051 117.679 72.2729 117.86 72.4942 118.09C72.9609 118.644 73.194 119.358 73.1444 120.081V123.426H65.459V122.094H68.4509ZM65.3847 110.818C65.3866 110.36 65.4466 109.905 65.5633 109.462C65.6925 108.985 65.9591 108.556 66.3299 108.23L67.3332 109.02C67.0576 109.284 66.8509 109.611 66.7312 109.974C66.6594 110.228 66.6202 110.491 66.6148 110.756C66.6172 110.96 66.6483 111.163 66.7071 111.358C66.7683 111.569 66.8736 111.765 67.0161 111.932C67.1722 112.111 67.3653 112.253 67.582 112.349C67.8483 112.465 68.1367 112.52 68.4268 112.512H70.1665C70.4558 112.52 70.7436 112.467 71.0113 112.357C71.2269 112.266 71.4201 112.13 71.5772 111.956C71.7206 111.792 71.8261 111.599 71.8862 111.39C71.9475 111.182 71.9785 110.965 71.9785 110.748C71.9701 110.467 71.9235 110.188 71.8401 109.919C71.7506 109.6 71.5799 109.309 71.3444 109.075L72.2735 108.254C72.6178 108.587 72.8737 109.001 73.0179 109.458C73.1504 109.887 73.2181 110.333 73.2186 110.782C73.2243 111.204 73.1564 111.624 73.0179 112.022C72.8937 112.377 72.7046 112.706 72.4601 112.992C72.2237 113.265 71.9297 113.482 71.5993 113.628C71.2501 113.78 70.8726 113.857 70.4916 113.852H68.2181C67.8119 113.858 67.4094 113.773 67.0402 113.604C66.6982 113.445 66.3922 113.219 66.1412 112.937C65.8909 112.654 65.6987 112.325 65.5754 111.968C65.4471 111.598 65.3826 111.21 65.3847 110.818ZM70.4354 100.841C70.8451 100.833 71.2511 100.921 71.6213 101.096C71.9606 101.261 72.2593 101.499 72.4962 101.793C72.7378 102.095 72.9215 102.439 73.038 102.808C73.1643 103.204 73.2273 103.617 73.2246 104.032C73.2281 104.453 73.1651 104.871 73.038 105.272C72.9241 105.638 72.7401 105.979 72.4962 106.275C72.2569 106.561 71.9584 106.791 71.6213 106.95C71.2498 107.121 70.8444 107.206 70.4354 107.198H68.2041C67.7944 107.206 67.3884 107.119 67.0181 106.944C66.6801 106.779 66.3796 106.547 66.1352 106.261C65.8861 105.966 65.6966 105.625 65.5774 105.258C65.4442 104.861 65.3765 104.445 65.3767 104.026C65.374 103.592 65.4418 103.16 65.5774 102.748C65.6966 102.38 65.8861 102.04 66.1352 101.744C66.3764 101.462 66.6782 101.237 67.0181 101.086C67.3925 100.925 67.7967 100.846 68.2041 100.853L70.4354 100.841ZM68.4288 102.158C68.1379 102.149 67.8489 102.208 67.584 102.328C67.3648 102.431 67.1715 102.582 67.0181 102.77C66.8756 102.948 66.7705 103.152 66.7091 103.372C66.6488 103.578 66.6177 103.793 66.6168 104.008C66.6171 104.228 66.6482 104.447 66.7091 104.658C66.7705 104.877 66.8756 105.082 67.0181 105.26C67.1715 105.448 67.3648 105.598 67.584 105.701C67.8489 105.822 68.1379 105.88 68.4288 105.872H70.1665C70.4551 105.88 70.7423 105.83 71.0113 105.726C71.2283 105.637 71.422 105.5 71.5772 105.324C71.7239 105.154 71.8296 104.953 71.8862 104.736C71.9493 104.499 71.9804 104.254 71.9785 104.008C71.9776 103.793 71.9465 103.578 71.8862 103.372C71.8249 103.152 71.7197 102.948 71.5772 102.77C71.4239 102.582 71.2305 102.431 71.0113 102.328C70.7464 102.208 70.4575 102.149 70.1665 102.158H68.4288ZM73.1383 99.3385H65.453V98.0221H68.7218V96.7198C68.7215 96.575 68.7134 96.4303 68.6977 96.2864C68.6825 96.1447 68.6374 96.0079 68.5652 95.8851C68.4828 95.7495 68.3752 95.631 68.2482 95.5359C68.0715 95.4086 67.8748 95.3116 67.6663 95.2489L65.459 94.5045V93.142L67.6904 93.9005C68.0211 94.0049 68.3363 94.1534 68.6275 94.3419C68.8741 94.5027 69.0533 94.7483 69.1311 95.0322C69.1618 94.8733 69.225 94.7224 69.3169 94.589C69.4087 94.4557 69.5272 94.3429 69.6649 94.2577C69.9751 94.0763 70.305 93.9309 70.6481 93.8242L73.1424 93.0035V94.3981L71.0193 95.0643C70.808 95.1288 70.6057 95.2198 70.4174 95.3352C70.2808 95.4202 70.1644 95.5339 70.0762 95.6683C69.9994 95.7909 69.947 95.9272 69.9217 96.0697C69.895 96.2281 69.8822 96.3886 69.8836 96.5492V98.0201H73.1363L73.1383 99.3385ZM71.0013 90.431L69.2515 89.2853L65.471 86.7288V85.4747H73.1404V86.8372H67.6001V86.9154L69.3819 88.0773L73.1464 90.6116V91.8357H65.4771V90.4872H71.0073L71.0013 90.431ZM69.7973 82.6373H70.309C70.5782 82.6458 70.8458 82.593 71.0916 82.4828C71.2983 82.3842 71.479 82.2385 71.6193 82.0574C71.7609 81.8731 71.8639 81.6622 71.9223 81.4373C71.9844 81.2023 72.0155 80.9601 72.0146 80.717C72.007 80.4114 71.9549 80.1086 71.8601 79.818C71.7384 79.4457 71.5324 79.1065 71.2581 78.8267L72.1732 77.99C72.5552 78.3493 72.8402 78.7994 73.0019 79.2983C73.1499 79.767 73.2257 80.2555 73.2266 80.7471C73.2286 81.167 73.1684 81.5849 73.048 81.9872C72.9386 82.3605 72.7595 82.7098 72.5203 83.0166C72.2856 83.3124 71.9864 83.5506 71.6454 83.7129C71.2621 83.8899 70.8435 83.977 70.4214 83.9677H68.3887C67.9662 83.9704 67.5474 83.8893 67.1566 83.7289C66.7996 83.5843 66.4774 83.3654 66.2115 83.0868C65.9466 82.8061 65.7417 82.4742 65.6095 82.1116C65.4689 81.7108 65.4009 81.2881 65.4088 80.8635C65.4042 80.4371 65.472 80.013 65.6095 79.6093C65.7329 79.2464 65.928 78.912 66.1834 78.6261C66.4349 78.3495 66.7447 78.1322 67.0904 77.99C67.4726 77.835 67.882 77.7586 68.2944 77.7652H69.8134L69.7973 82.6373ZM68.4208 79.1137C68.1408 79.1064 67.8621 79.1534 67.6001 79.2521C67.3861 79.3359 67.193 79.4654 67.0342 79.6314C66.8851 79.7905 66.774 79.9812 66.7091 80.1892C66.641 80.4074 66.6071 80.6349 66.6088 80.8635C66.607 81.0901 66.6437 81.3153 66.7171 81.5297C66.7885 81.7348 66.8989 81.9242 67.0422 82.0875C67.1932 82.2573 67.3814 82.3898 67.592 82.4748C67.8411 82.5726 68.1071 82.6197 68.3746 82.6132H68.7157V79.1137H68.4208ZM66.6549 69.5702H73.1464V70.9487H66.6549V73.3226H65.461V67.1883H66.6549V69.5702ZM69.7993 64.969H70.311C70.5802 64.9775 70.8478 64.9247 71.0936 64.8145C71.3003 64.7158 71.481 64.5701 71.6213 64.3891C71.7629 64.2048 71.8659 63.9939 71.9243 63.769C71.9864 63.534 72.0174 63.2918 72.0166 63.0487C72.009 62.7431 71.9569 62.4403 71.8621 62.1497C71.7404 61.7773 71.5344 61.4381 71.2601 61.1584L72.1752 60.3217C72.5572 60.681 72.8422 61.131 73.0039 61.63C73.1519 62.0987 73.2277 62.5872 73.2286 63.0788C73.2306 63.4987 73.1704 63.9165 73.0501 64.3188C72.9406 64.6922 72.7615 65.0414 72.5223 65.3482C72.2876 65.6441 71.9884 65.8822 71.6474 66.0445C71.2641 66.2216 70.8455 66.3088 70.4234 66.2994H68.3887C67.9669 66.3053 67.5481 66.2275 67.1566 66.0706C66.7996 65.926 66.4774 65.7071 66.2115 65.4285C65.9466 65.1478 65.7417 64.8159 65.6095 64.4533C65.4689 64.0525 65.4009 63.6298 65.4088 63.2052C65.4042 62.7788 65.472 62.3547 65.6095 61.951C65.7329 61.5881 65.928 61.2537 66.1834 60.9678C66.4349 60.6912 66.7447 60.4739 67.0904 60.3317C67.4726 60.1767 67.882 60.1003 68.2944 60.1069H69.8134L69.7993 64.969ZM68.4208 61.4554C68.1408 61.4481 67.8621 61.4951 67.6001 61.5938C67.3861 61.6776 67.193 61.8071 67.0342 61.9731C66.8851 62.1321 66.774 62.3229 66.7091 62.5309C66.641 62.7491 66.6071 62.9766 66.6088 63.2052C66.607 63.4318 66.6437 63.657 66.7171 63.8714C66.7885 64.0765 66.8989 64.266 67.0422 64.4292C67.1932 64.599 67.3814 64.7315 67.592 64.8165C67.8411 64.9144 68.1071 64.9614 68.3746 64.9549H68.7157V61.4554H68.4208ZM73.1464 54.5145L70.2649 56.2382L73.1464 58.004V59.5692L69.2114 56.9606L65.463 59.4086V57.8033L68.1439 56.198L65.463 54.5707V52.9895L69.1813 55.4676L73.1484 52.8811L73.1464 54.5145ZM73.1464 47.0478H69.8776V50.7039H73.1464V52.0363H65.4771V50.7039H68.6676V47.0478H65.4771V45.6994H73.1464V47.0478ZM70.4354 37.8294C70.8451 37.8215 71.2511 37.9087 71.6213 38.0842C71.9606 38.2493 72.2593 38.487 72.4962 38.7805C72.7378 39.0828 72.9215 39.427 73.038 39.7959C73.1643 40.1915 73.2273 40.6046 73.2246 41.0199C73.2281 41.4405 73.1651 41.8591 73.038 42.26C72.9241 42.6264 72.7401 42.9671 72.4962 43.2634C72.2569 43.5489 71.9584 43.7789 71.6213 43.9376C71.2498 44.1087 70.8444 44.1938 70.4354 44.1864H68.2041C67.7944 44.1943 67.3884 44.1071 67.0181 43.9315C66.6801 43.7671 66.3796 43.5349 66.1352 43.2493C65.8861 42.9541 65.6966 42.6134 65.5774 42.246C65.4442 41.8489 65.3765 41.4328 65.3767 41.0139C65.374 40.5798 65.4418 40.1481 65.5774 39.7357C65.6966 39.3683 65.8861 39.0275 66.1352 38.7324C66.3764 38.4496 66.6782 38.2246 67.0181 38.0742C67.3925 37.9134 67.7967 37.834 68.2041 37.8414L70.4354 37.8294ZM68.4288 39.1458C68.1379 39.1374 67.8489 39.1958 67.584 39.3163C67.3648 39.4194 67.1715 39.5702 67.0181 39.7578C66.8756 39.9355 66.7705 40.1403 66.7091 40.3597C66.6488 40.5664 66.6177 40.7805 66.6168 40.9958C66.6171 41.2158 66.6482 41.4347 66.7091 41.646C66.7705 41.8654 66.8756 42.0702 67.0181 42.248C67.1715 42.4355 67.3648 42.5863 67.584 42.6894C67.8489 42.81 68.1379 42.8683 68.4288 42.86H70.1665C70.4551 42.8679 70.7423 42.8181 71.0113 42.7135C71.2283 42.6251 71.422 42.4877 71.5772 42.3122C71.7239 42.1425 71.8296 41.9413 71.8862 41.7243C71.9493 41.4866 71.9804 41.2417 71.9785 40.9958C71.9776 40.7805 71.9465 40.5664 71.8862 40.3597C71.8249 40.1403 71.7197 39.9355 71.5772 39.7578C71.4239 39.5702 71.2305 39.4194 71.0113 39.3163C70.7464 39.1958 70.4575 39.1374 70.1665 39.1458H68.4288ZM66.6469 34.0329H68.7238C69.3895 34.0203 70.0546 34.0829 70.7063 34.2195C71.1658 34.3165 71.606 34.4894 72.0086 34.7312C72.3332 34.9327 72.6126 35.1992 72.8293 35.5138C73.041 35.8282 73.2179 36.1646 73.3571 36.5171L72.2875 37.0589C72.1679 36.7958 72.0283 36.5422 71.8702 36.3004C71.7161 36.076 71.5094 35.8927 71.2682 35.7666C70.9535 35.6078 70.6143 35.5033 70.2649 35.4576C69.7258 35.3822 69.1817 35.3486 68.6375 35.3572H65.4771V30.0276H73.1464V31.356H66.6549L66.6469 34.0329ZM70.4274 21.9931C70.8371 21.9852 71.243 22.0724 71.6133 22.248C71.9525 22.413 72.2512 22.6507 72.4882 22.9443C72.7298 23.2465 72.9134 23.5907 73.03 23.9596C73.1563 24.3553 73.2192 24.7684 73.2166 25.1837C73.2201 25.6043 73.1571 26.0228 73.03 26.4238C72.916 26.7901 72.732 27.1308 72.4882 27.4271C72.2489 27.7126 71.9504 27.9427 71.6133 28.1013C71.2418 28.2724 70.8364 28.3575 70.4274 28.3501H68.2041C67.7944 28.358 67.3884 28.2708 67.0181 28.0953C66.6801 27.9308 66.3796 27.6986 66.1352 27.413C65.8861 27.1179 65.6966 26.7771 65.5774 26.4097C65.4442 26.0126 65.3765 25.5965 65.3767 25.1776C65.374 24.7435 65.4418 24.3118 65.5774 23.8994C65.6966 23.532 65.8861 23.1913 66.1352 22.8961C66.3764 22.6133 66.6782 22.3883 67.0181 22.2379C67.3925 22.0771 67.7967 21.9978 68.2041 22.0052L70.4274 21.9931ZM68.4208 23.3095C68.1299 23.3012 67.8409 23.3595 67.576 23.48C67.3568 23.5831 67.1634 23.734 67.0101 23.9215C66.8676 24.0993 66.7625 24.304 66.7011 24.5235C66.6408 24.7302 66.6097 24.9443 66.6088 25.1596C66.6091 25.3795 66.6402 25.5984 66.7011 25.8097C66.7625 26.0292 66.8676 26.2339 67.0101 26.4117C67.1634 26.5992 67.3568 26.7501 67.576 26.8532C67.8409 26.9737 68.1299 27.032 68.4208 27.0237H70.1665C70.4551 27.0316 70.7423 26.9819 71.0113 26.8773C71.2283 26.7887 71.4219 26.6514 71.5772 26.4759C71.7239 26.3062 71.8296 26.105 71.8862 25.888C71.9493 25.6504 71.9804 25.4054 71.9785 25.1596C71.9776 24.9443 71.9465 24.7302 71.8862 24.5235C71.8218 24.3071 71.7146 24.1059 71.5712 23.9315C71.4178 23.744 71.2245 23.5932 71.0053 23.4901C70.7404 23.3695 70.4514 23.3112 70.1605 23.3195L68.4208 23.3095ZM66.6389 19.2039H73.1303V20.5524H65.4449V15.0843H66.6389V19.2039ZM70.9933 12.8831L69.2435 11.7373L65.463 9.18083V7.9267H73.1323V9.28316H67.6001V9.36142L69.3819 10.5233L73.1464 13.0636V14.2877H65.4771V12.9392H71.0073L70.9933 12.8831ZM70.9933 4.96692L69.2435 3.82114L65.4771 1.25665V0.00253296H73.1464V1.36502H67.6001V1.45734L69.3819 2.61917L73.1464 5.15958V6.38361H65.4771V5.03513H71.0073L70.9933 4.96692Z" fill="white" fill-opacity="0.8"/>
</svg>
