<svg width="31" height="31" viewBox="0 0 31 31" fill="none" xmlns="http://www.w3.org/2000/svg">
<path d="M13.95 15.5005V17.0504H12.4001C11.989 17.0504 11.5947 17.2137 11.3041 17.5044C11.0134 17.7951 10.8501 18.1893 10.8501 18.6004C10.8501 19.0114 11.0134 19.4057 11.3041 19.6964C11.5947 19.987 11.989 20.1503 12.4001 20.1503H13.95V21.7003C13.95 22.1114 14.1133 22.5056 14.404 22.7963C14.6947 23.0869 15.0889 23.2502 15.5 23.2502C15.9111 23.2502 16.3053 23.0869 16.596 22.7963C16.8867 22.5056 17.05 22.1114 17.05 21.7003V20.1503H18.5999C19.011 20.1503 19.4053 19.987 19.6959 19.6964C19.9866 19.4057 20.1499 19.0114 20.1499 18.6004C20.1499 18.1893 19.9866 17.7951 19.6959 17.5044C19.4053 17.2137 19.011 17.0504 18.5999 17.0504H17.05V15.5005C17.05 15.0894 16.8867 14.6952 16.596 14.4045C16.3053 14.1138 15.9111 13.9505 15.5 13.9505C15.0889 13.9505 14.6947 14.1138 14.404 14.4045C14.1133 14.6952 13.95 15.0894 13.95 15.5005ZM30.4789 12.7912L16.5292 0.391527C16.2457 0.139326 15.8794 0 15.5 0C15.1206 0 14.7543 0.139326 14.4708 0.391527L0.521102 12.7912C0.213616 13.0641 0.0271552 13.448 0.00273848 13.8585C-0.0216783 14.2689 0.117949 14.6722 0.390905 14.9797C0.66386 15.2872 1.04778 15.4736 1.45822 15.498C1.86865 15.5225 2.27198 15.3828 2.57946 15.1099L3.10025 14.6464V29.45C3.10025 29.8611 3.26355 30.2554 3.55423 30.546C3.8449 30.8367 4.23914 31 4.65022 31H26.3498C26.7609 31 27.1551 30.8367 27.4458 30.546C27.7365 30.2554 27.8998 29.8611 27.8998 29.45V14.6464L28.4205 15.1099C28.728 15.3828 29.1314 15.5225 29.5418 15.498C29.745 15.486 29.9439 15.434 30.127 15.345C30.3101 15.2561 30.4739 15.1319 30.6091 14.9797C30.7443 14.8274 30.8481 14.6501 30.9147 14.4577C30.9813 14.2653 31.0094 14.0617 30.9973 13.8585C30.9852 13.6552 30.9332 13.4564 30.8442 13.2732C30.7553 13.0901 30.6312 12.9263 30.4789 12.7912ZM24.7998 27.9001H6.20019V11.8906L15.5 3.62473L24.7998 11.8906V27.9001Z" fill="white"/>
</svg>
