<svg width="34" height="34" viewBox="0 0 34 34" fill="none" xmlns="http://www.w3.org/2000/svg">
<path d="M30.6849 14.7895L29.2966 20.7112C28.1066 25.8253 25.7549 27.8936 21.3349 27.4686C20.6266 27.412 19.8616 27.2845 19.0399 27.0862L16.6599 26.5195C10.7524 25.117 8.92493 22.1987 10.3133 16.277L11.7016 10.3411C11.9849 9.13698 12.3249 8.08865 12.7499 7.22448C14.4074 3.79615 17.2266 2.87532 21.9583 3.99448L24.3241 4.54698C30.2599 5.93532 32.0733 8.86782 30.6849 14.7895Z" stroke="white" stroke-width="1.7" stroke-linecap="round" stroke-linejoin="round"/>
<path d="M21.335 27.4691C20.4567 28.0641 19.3517 28.56 18.0058 28.9991L15.7675 29.7358C10.1433 31.5491 7.1825 30.0333 5.355 24.4091L3.54166 18.8133C1.72833 13.1891 3.22999 10.2141 8.85416 8.40081L11.0925 7.66414C11.6733 7.47998 12.2258 7.32414 12.75 7.22498C12.325 8.08914 11.985 9.13748 11.7017 10.3416L10.3133 16.2775C8.925 22.1991 10.7525 25.1175 16.66 26.52L19.04 27.0866C19.8617 27.285 20.6267 27.4125 21.335 27.4691Z" stroke="white" stroke-width="1.7" stroke-linecap="round" stroke-linejoin="round"/>
<path d="M17.9067 12.0847L24.7776 13.8272" stroke="white" stroke-width="1.7" stroke-linecap="round" stroke-linejoin="round"/>
<path d="M16.5186 17.5667L20.6269 18.615" stroke="white" stroke-width="1.7" stroke-linecap="round" stroke-linejoin="round"/>
</svg>
