<svg width="37" height="37" viewBox="0 0 37 37" fill="none" xmlns="http://www.w3.org/2000/svg">
<path d="M33.3925 16.0944L31.8816 22.5386C30.5866 28.104 28.0275 30.3548 23.2175 29.8923C22.4466 29.8307 21.6141 29.6919 20.72 29.4761L18.13 28.8594C11.7012 27.3332 9.71245 24.1573 11.2233 17.7132L12.7341 11.2536C13.0425 9.94317 13.4125 8.80234 13.875 7.86192C15.6787 4.13109 18.7466 3.12901 23.8958 4.34692L26.4704 4.94817C32.93 6.45901 34.9033 9.65026 33.3925 16.0944Z" stroke="white" stroke-width="3" stroke-linecap="round" stroke-linejoin="round"/>
<path d="M23.2173 29.893C22.2615 30.5405 21.059 31.08 19.5944 31.558L17.1585 32.3596C11.0381 34.333 7.81604 32.6834 5.82729 26.563L3.85396 20.4734C1.88063 14.353 3.51479 11.1155 9.63521 9.14213L12.071 8.34047C12.7031 8.14005 13.3044 7.97047 13.8748 7.86255C13.4123 8.80297 13.0423 9.9438 12.734 11.2542L11.2231 17.7138C9.71229 24.158 11.701 27.3338 18.1298 28.86L20.7198 29.4767C21.614 29.6926 22.4465 29.8313 23.2173 29.893Z" stroke="white" stroke-width="3" stroke-linecap="round" stroke-linejoin="round"/>
<path d="M19.4863 13.151L26.9634 15.0473" stroke="white" stroke-width="3" stroke-linecap="round" stroke-linejoin="round"/>
<path d="M17.9761 19.1167L22.4469 20.2575" stroke="white" stroke-width="3" stroke-linecap="round" stroke-linejoin="round"/>
</svg>
