<svg width="186" height="46" viewBox="0 0 186 46" fill="none" xmlns="http://www.w3.org/2000/svg">
<path d="M4.70221 20.3145C3.74297 10.4209 11.868 0.30641 21.9883 0.0157312C25.0619 -0.113183 28.1169 0.551964 30.8587 1.94702C25.1474 0.114575 18.4002 0.416881 13.5726 4.27245C8.8438 8.12802 5.47658 14.3346 6.38932 20.5505C5.08591 22.5341 2.70234 23.5282 1.60823 25.6513C0.957105 27.1001 1.84076 28.507 2.5442 29.7348C1.06639 32.2242 2.82326 34.7601 3.43368 37.2145C3.8697 39.3435 2.68373 42.0305 4.5964 43.6537C5.41866 44.4102 6.43947 44.9167 7.53924 45.114C6.82998 45.0385 6.11375 44.9687 5.4045 44.9106C4.15104 44.2036 3.1814 43.084 2.66071 41.7425C2.14003 40.4009 2.10051 38.9203 2.54887 37.5529C1.47336 35.1275 0.199015 32.5625 0.879204 29.8348C0.0617556 28.4733 -0.198573 26.8489 0.152506 25.3002C0.874553 23.0364 3.10813 21.8841 4.70221 20.3145Z" fill="#FF3560"/>
<path d="M32.3887 7.02332C33.9552 6.9128 35.5276 6.9128 37.0942 7.02332C39.1068 11.4963 41.2358 15.9228 43.0089 20.4992C44.7716 15.939 46.754 11.4777 48.7841 7.03494C50.384 7.02332 51.9886 7.0175 53.5943 7.02912C53.5881 14.4969 53.5862 21.965 53.5885 29.4335C51.8963 29.4273 50.2077 29.4196 48.5225 29.4103C48.4992 25.8919 48.6039 22.3665 48.4934 18.8482C47.2017 21.3317 46.2424 23.9722 44.946 26.4558C43.6775 26.4674 42.4101 26.4849 41.1416 26.4965C39.8847 23.9606 38.8615 21.3201 37.5186 18.8226C37.4604 22.3584 37.5418 25.8954 37.5186 29.4312C35.8315 29.4196 34.1467 29.4196 32.4584 29.4021C32.348 21.9421 32.4526 14.4798 32.3887 7.02332Z" fill="#FF3560"/>
<path d="M57.6997 6.99095C57.6997 6.99095 68.3084 6.77584 73.6069 7.06071C73.5952 8.52689 73.5952 9.99773 73.5952 11.479C69.9257 11.4907 66.2608 11.479 62.5913 11.4907V15.9985C65.7085 15.9985 68.8258 15.9636 71.9442 15.9985C71.9325 17.4007 71.9384 18.8018 71.9442 20.2041C68.8618 20.2041 65.7818 20.2273 62.7076 20.2041C62.6145 21.7574 62.5913 23.3155 62.5506 24.8747C66.2085 25.02 69.885 24.7061 73.5371 25.0142C73.6359 26.4862 73.5836 27.957 73.5952 29.4325C68.2851 29.3918 62.975 29.4151 57.666 29.4325C57.7055 21.9481 57.6939 14.4742 57.6997 6.99095Z" fill="#FF3560"/>
<path d="M80.0505 7.04675C80.0505 7.04675 90.3277 6.80258 95.4576 7.04675C95.4751 13.0429 95.4228 19.0402 95.4809 25.0363C96.2425 25.0654 97.0052 25.0944 97.7726 25.1293C97.7436 28.2873 97.7726 31.4394 97.7552 34.5985C96.3599 34.6159 94.9647 34.6741 93.5845 34.581C93.441 32.8614 93.408 31.1343 93.4857 29.4105C88.693 29.3814 83.9061 29.4395 79.1192 29.3988C79.1599 31.1324 79.1657 32.8649 79.1657 34.5985C77.7343 34.6159 76.3042 34.6218 74.8787 34.6276C74.8439 31.5394 74.9427 28.4454 74.8903 25.3561C76.0531 24.8794 77.8158 25.0828 78.3215 23.669C78.8514 22.6525 79.1866 21.546 79.3099 20.4064C79.7284 15.9625 79.9745 11.5054 80.0482 7.03513L80.0505 7.04675ZM84.4049 11.5023C83.8991 16.0369 84.3933 20.7331 82.7178 25.0712C85.2885 25.0421 87.8593 25.0538 90.4301 25.0596C90.4766 20.5401 90.4475 16.0206 90.465 11.5023C88.4442 11.5023 86.4257 11.5023 84.4072 11.5139L84.4049 11.5023Z" fill="#FF3560"/>
<path d="M100.897 6.97699C100.897 6.97699 104.288 6.90141 105.986 7.02349C105.951 11.6999 105.986 16.3764 105.922 21.0528C108.952 16.3357 112 11.6244 115.224 7.03513C116.609 6.95956 117.998 6.90723 119.395 6.91885C119.383 14.4161 119.36 21.9179 119.395 29.4163C117.714 29.4163 116.035 29.4104 114.358 29.3988C114.346 24.9084 114.399 20.4122 114.323 15.9229C111.502 20.5296 108.478 25.0084 105.342 29.4104C103.853 29.4159 102.368 29.4081 100.887 29.3872C100.913 21.9233 100.917 14.4533 100.897 6.97699Z" fill="#FF3560"/>
<path d="M123.733 6.86634C123.733 6.86634 127.053 6.84889 128.723 6.8547C128.752 9.90218 128.741 12.9555 128.735 16.0099C130.631 15.9751 133.074 16.2425 134.254 14.3694C135.294 12.0164 136.129 9.57803 136.749 7.08144C138.39 7.05276 140.036 7.05857 141.687 7.09888C140.244 10.7103 140.024 15.0379 137.037 17.8412C138.004 18.5632 138.779 19.5119 139.293 20.6038C140.392 23.4769 141.108 26.4837 142.044 29.4149C140.334 29.4207 138.625 29.4091 136.92 29.4033C135.99 26.6523 135.628 23.6048 133.937 21.1794C132.476 20.0457 130.511 20.2085 128.778 20.1329C128.714 23.2327 128.749 26.3325 128.749 29.4347C127.074 29.423 125.402 29.4133 123.735 29.4056C123.686 21.8898 123.712 14.3787 123.733 6.86634Z" fill="#FF3560"/>
<path d="M151.186 6.94783C152.76 6.81103 154.347 7.00301 155.843 7.51161C157.34 8.0202 158.715 8.83431 159.88 9.9023C161.269 11.1713 162.317 12.7685 162.929 14.5475C163.541 16.3266 163.696 18.2307 163.381 20.0855C163.067 21.9402 162.291 23.6863 161.127 25.1639C159.962 26.6414 158.446 27.8032 156.716 28.5428C154.986 29.2824 153.098 29.5762 151.226 29.3972C149.353 29.2182 147.555 28.5723 145.997 27.5185C144.438 26.4646 143.169 25.0366 142.305 23.3653C141.442 21.6939 141.011 19.8326 141.054 17.9518C141.126 15.2026 142.193 12.5729 144.056 10.5497C145.919 8.52648 148.452 7.24688 151.186 6.94783ZM150.703 11.1185C149.342 11.4342 148.101 12.1363 147.13 13.1403C146.158 14.1442 145.497 15.4074 145.226 16.778C144.955 18.1485 145.086 19.5682 145.602 20.8664C146.118 22.1645 146.999 23.2859 148.137 24.0959C149.276 24.9058 150.624 25.3697 152.019 25.432C153.415 25.4942 154.799 25.1521 156.005 24.4467C157.211 23.7413 158.188 22.7027 158.818 21.4556C159.447 20.2086 159.704 18.8062 159.556 17.4169C159.125 13.2963 154.781 9.97786 150.698 11.1185H150.703Z" fill="#FF3560"/>
<path d="M165.033 6.99434C166.593 6.89257 168.158 6.91007 169.715 7.04668C171.692 11.5138 173.776 15.9403 175.607 20.476C177.329 15.9159 179.428 11.5231 181.324 7.02924C182.877 7.01761 184.435 7.0176 185.995 6.98272C185.983 14.4625 186.006 21.9422 185.983 29.4162C184.348 29.422 182.72 29.4162 181.091 29.3929C181.08 25.8804 181.173 22.3666 181.08 18.8541C179.823 21.3376 178.806 23.9316 177.592 26.4326C176.294 26.4559 174.992 26.4791 173.7 26.485C172.456 23.8444 171.304 21.1574 170.118 18.4936C170.019 22.1341 170.106 25.7757 170.071 29.4162C168.396 29.4162 166.727 29.4162 165.058 29.3987C165.039 21.9306 165.062 14.4625 165.033 6.99434Z" fill="#FF3560"/>
<path d="M150.916 12.5254C151.834 12.537 152.76 12.5545 153.684 12.5719C153.661 13.9509 153.632 15.3287 153.586 16.7077C155.04 16.7833 156.492 16.8763 157.948 16.9518C157.936 17.7948 157.936 18.6448 157.936 19.4935C156.494 19.5114 155.051 19.523 153.609 19.5284C153.632 20.9237 153.648 22.319 153.655 23.7142C152.743 23.7258 151.823 23.7316 150.922 23.7433C150.922 22.3294 150.933 20.9225 150.968 19.5145C149.52 19.5145 148.078 19.5029 146.641 19.4796C146.641 18.625 146.641 17.775 146.646 16.9321C148.084 16.8158 149.525 16.746 150.968 16.717C150.936 15.3171 150.916 13.9218 150.916 12.5254Z" fill="#FF3560"/>
<path d="M9.01679 20.3657C8.20289 12.886 13.8851 5.01787 21.4753 4.04584C23.6578 3.77579 25.8727 3.97398 27.9726 4.6272C27.926 17.795 27.9726 30.9627 27.9493 44.1258C25.5704 44.1084 23.1915 44.1142 20.8126 44.12C20.0905 43.3364 19.2482 42.6727 18.3174 42.1539C14.6304 40.5656 10.4365 43.3457 6.84717 41.3225C5.33564 40.0435 7.09133 38.2402 6.96343 36.6717C6.51377 35.9308 6.02232 35.2161 5.49144 34.5311C5.77631 34.1939 6.07279 33.8625 6.35766 33.537C5.74723 33.0719 5.14843 32.601 4.56009 32.1115C5.2054 31.1348 5.86932 30.1628 6.48556 29.1687C5.58703 28.4464 4.75755 27.6422 4.00781 26.7665C5.74491 24.7399 8.83309 23.3446 9.01679 20.3657Z" fill="black"/>
<path d="M36.114 42.3842V36.9531H33.2142V42.3842H32.3887V36.1985H36.9581V42.3842H36.114ZM38.565 37.9403L38.6546 38.4053C38.9215 38.237 39.2061 38.0986 39.5033 37.9926C39.6846 37.932 39.8739 37.8987 40.0649 37.8938C40.4592 37.878 40.8442 38.0164 41.1381 38.2798C41.2882 38.4399 41.4029 38.6298 41.4748 38.8371C41.5467 39.0444 41.5742 39.2645 41.5555 39.4832V40.8482C41.5693 41.0622 41.5394 41.2768 41.4676 41.4789C41.3959 41.681 41.2838 41.8663 41.1381 42.0237C40.9849 42.1658 40.8046 42.2755 40.608 42.3465C40.4115 42.4174 40.2026 42.448 39.994 42.4365C39.8047 42.4343 39.6158 42.418 39.4289 42.3877C39.1637 42.3392 38.9048 42.2612 38.6569 42.1551V44.1573H37.8918V37.9403H38.565ZM38.6546 41.4284C38.8791 41.5262 39.1128 41.6014 39.3522 41.6528C39.5385 41.6881 39.7277 41.706 39.9173 41.7063C40.0309 41.707 40.1442 41.6933 40.2545 41.6656C40.3558 41.6402 40.4495 41.5907 40.5277 41.5214C40.6105 41.445 40.6735 41.3496 40.7114 41.2435C40.76 41.1039 40.7829 40.9565 40.7788 40.8087V39.5297C40.7933 39.4038 40.7817 39.2762 40.7447 39.155C40.7077 39.0337 40.6461 38.9214 40.5637 38.8251C40.4035 38.6906 40.1983 38.6216 39.9894 38.6321C39.889 38.6346 39.7894 38.6498 39.6929 38.6774C39.5745 38.7096 39.458 38.7484 39.344 38.7937C39.2197 38.8423 39.0982 38.8978 38.9801 38.96C38.8687 39.0179 38.7607 39.0823 38.6569 39.153L38.6546 41.4284ZM46.0692 40.8087C46.0738 41.0461 46.0232 41.2813 45.9215 41.4958C45.8259 41.6924 45.6882 41.8655 45.5181 42.0028C45.343 42.1428 45.1435 42.2492 44.9297 42.3167C44.7005 42.3899 44.4611 42.4264 44.2205 42.4249C43.9768 42.4269 43.7343 42.3904 43.5019 42.3167C43.2896 42.2507 43.0922 42.1441 42.9206 42.0028C42.7551 41.8641 42.6218 41.6912 42.5299 41.4958C42.4307 41.2806 42.3814 41.0457 42.3857 40.8087V39.5204C42.3811 39.283 42.4317 39.0478 42.5334 38.8332C42.6287 38.6374 42.7632 38.4632 42.9287 38.3216C43.0997 38.1772 43.2972 38.0675 43.5101 37.9984C43.7402 37.9213 43.9813 37.882 44.224 37.8821C44.4755 37.8806 44.7256 37.9198 44.9646 37.9984C45.1775 38.0675 45.375 38.1772 45.546 38.3216C45.7099 38.4614 45.8402 38.6363 45.9273 38.8332C46.0205 39.0501 46.0665 39.2844 46.0622 39.5204L46.0692 40.8087ZM45.3065 39.646C45.3113 39.4774 45.2775 39.31 45.2076 39.1565C45.1479 39.0295 45.0605 38.9174 44.9518 38.8286C44.8488 38.746 44.7302 38.6851 44.603 38.6495C44.4836 38.6175 44.3604 38.6023 44.2368 38.6042C44.1093 38.6044 43.9825 38.6224 43.86 38.6577C43.7329 38.6932 43.6142 38.7541 43.5112 38.8367C43.4026 38.9256 43.3152 39.0376 43.2554 39.1646C43.1856 39.3181 43.1518 39.4855 43.1566 39.6541V40.6575C43.152 40.8247 43.1809 40.9911 43.2415 41.147C43.2927 41.2728 43.3723 41.385 43.474 41.4749C43.5724 41.5599 43.6889 41.6212 43.8147 41.654C43.9522 41.6917 44.0942 41.7109 44.2368 41.711C44.3615 41.7104 44.4856 41.6924 44.6053 41.6575C44.7325 41.6219 44.8511 41.561 44.9542 41.4784C45.0628 41.3896 45.1502 41.2775 45.2099 41.1505C45.2795 40.9958 45.3125 40.8271 45.3065 40.6575V39.646ZM48.9423 44.162V42.4295C48.6232 42.4207 48.3083 42.3553 48.0121 42.2365C47.7745 42.1391 47.5604 41.992 47.3842 41.8051C47.2261 41.6304 47.1072 41.4238 47.0354 41.1994C46.959 40.9707 46.9197 40.7312 46.9191 40.4901V39.9332C46.9169 39.6743 46.9562 39.4168 47.0354 39.1704C47.1132 38.93 47.2398 38.7083 47.4075 38.5193C47.5834 38.3246 47.7991 38.17 48.04 38.0658C48.3258 37.9454 48.6322 37.8815 48.9423 37.8775V36.1892H49.7015V37.8775C50.0072 37.8826 50.3096 37.942 50.5945 38.053C50.8329 38.1472 51.0485 38.2911 51.227 38.4751C51.395 38.6527 51.5234 38.8639 51.6037 39.0948C51.6883 39.3358 51.7308 39.5895 51.7293 39.8448V40.4913C51.7302 40.7318 51.6876 40.9705 51.6037 41.1959C51.5203 41.4197 51.3921 41.6243 51.227 41.797C51.0468 41.9821 50.8319 42.1299 50.5945 42.2318C50.3115 42.3521 50.0088 42.4191 49.7015 42.4295V44.162H48.9423ZM48.9423 38.5809C48.7458 38.5741 48.5506 38.6139 48.3725 38.6972C48.2219 38.7715 48.0887 38.8769 47.9819 39.0065C47.8787 39.1349 47.8024 39.2828 47.7575 39.4413C47.7095 39.606 47.6852 39.7767 47.6854 39.9483V40.3517C47.6846 40.5195 47.7025 40.6868 47.7389 40.8505C47.7724 41.0042 47.84 41.1484 47.9365 41.2726C48.0406 41.4022 48.1726 41.5067 48.3225 41.5784C48.5176 41.6674 48.7281 41.7175 48.9423 41.7261V38.5809ZM49.705 41.7319C49.909 41.7397 50.112 41.6999 50.298 41.6156C50.4496 41.5429 50.5831 41.4372 50.6887 41.3063C50.7885 41.1777 50.8602 41.0296 50.8991 40.8715C50.9411 40.7058 50.9622 40.5355 50.9619 40.3645V39.9599C50.9622 39.7887 50.9395 39.6182 50.8945 39.453C50.8524 39.2942 50.7776 39.1461 50.6747 39.0181C50.5678 38.8885 50.4347 38.7831 50.284 38.7088C50.1022 38.6245 49.903 38.5847 49.7027 38.5925L49.705 41.7319ZM53.3408 40.4448V40.7412C53.3359 40.8972 53.3665 41.0523 53.4304 41.1947C53.4875 41.3145 53.5719 41.4192 53.6769 41.5005C53.7836 41.5825 53.9058 41.6422 54.0361 41.6761C54.1723 41.7121 54.3127 41.73 54.4535 41.7296C54.6306 41.7251 54.8061 41.6949 54.9744 41.64C55.1902 41.5695 55.3867 41.4501 55.5488 41.2912L56.0337 41.8214C55.8254 42.0428 55.5647 42.2079 55.2756 42.3016C55.004 42.3874 54.7209 42.4313 54.4361 42.4318C54.1928 42.433 53.9507 42.3981 53.7175 42.3284C53.5012 42.2649 53.2988 42.1612 53.1211 42.0226C52.9497 41.8866 52.8117 41.7132 52.7176 41.5156C52.615 41.2935 52.5645 41.0509 52.5699 40.8064V39.6274C52.5669 39.3829 52.6123 39.1403 52.7037 38.9135C52.7874 38.7066 52.9143 38.5199 53.0757 38.3658C53.2384 38.2123 53.4307 38.0936 53.6408 38.017C53.873 37.9355 54.118 37.8962 54.364 37.9007C54.6111 37.898 54.8568 37.9373 55.0907 38.017C55.301 38.0885 55.4948 38.2016 55.6604 38.3495C55.8207 38.4953 55.9466 38.6748 56.029 38.8751C56.1188 39.0965 56.1631 39.3338 56.1593 39.5727V40.4529L53.3408 40.4448ZM55.3791 39.646C55.3833 39.4838 55.3561 39.3223 55.2988 39.1704C55.2503 39.0465 55.1753 38.9346 55.0791 38.8425C54.9869 38.7562 54.8764 38.6918 54.7559 38.6542C54.6294 38.6147 54.4976 38.5951 54.3652 38.596C54.2339 38.595 54.1034 38.6162 53.9792 38.6588C53.8603 38.7002 53.7505 38.7641 53.6559 38.8472C53.5576 38.9346 53.4808 39.0437 53.4315 39.1658C53.3748 39.3101 53.3475 39.4642 53.3513 39.6192V39.8169H55.3802L55.3791 39.646ZM58.6649 37.8868C58.9302 37.8878 59.1943 37.9226 59.4509 37.9903C59.7273 38.0651 59.9755 38.2196 60.1648 38.4344L59.7067 39.0158C59.5539 38.8561 59.3643 38.7363 59.1544 38.667C59.0067 38.6253 58.8544 38.6027 58.701 38.5995C58.5827 38.6009 58.4653 38.6189 58.3521 38.653C58.2299 38.6885 58.1165 38.7495 58.0196 38.8321C57.9161 38.9225 57.8336 39.0344 57.7778 39.16C57.711 39.3143 57.6788 39.4814 57.6836 39.6495V40.6575C57.6789 40.8252 57.7094 40.9919 57.7731 41.147C57.8258 41.272 57.9052 41.3839 58.0056 41.4749C58.1004 41.558 58.2124 41.6191 58.3335 41.654C58.4544 41.6895 58.5797 41.7075 58.7056 41.7075C58.8686 41.7026 59.0301 41.6756 59.1858 41.6272C59.3711 41.5754 59.5397 41.4765 59.6753 41.34L60.1509 41.8784C59.9578 42.0779 59.718 42.2262 59.4532 42.3098C59.2047 42.3865 58.946 42.4257 58.6858 42.426C58.4414 42.4293 58.1982 42.39 57.9673 42.3098C57.7616 42.2378 57.5712 42.1282 57.4057 41.9865C57.2474 41.8496 57.1215 41.6792 57.0371 41.4877C56.9487 41.2854 56.9043 41.0666 56.9069 40.8459V39.5285C56.9036 39.2931 56.9528 39.06 57.0511 38.846C57.1428 38.6478 57.2742 38.4706 57.4371 38.3251C57.601 38.1801 57.7918 38.0687 57.9987 37.9972C58.2129 37.9229 58.4382 37.8855 58.6649 37.8868V37.8868ZM62.5158 37.8868C62.7812 37.8878 63.0453 37.9226 63.3018 37.9903C63.5782 38.0651 63.8264 38.2196 64.0157 38.4344L63.5576 39.0158C63.4048 38.8561 63.2152 38.7363 63.0053 38.667C62.8577 38.6253 62.7053 38.6027 62.5519 38.5995C62.4337 38.6009 62.3162 38.6189 62.2031 38.653C62.0808 38.6885 61.9674 38.7495 61.8705 38.8321C61.7671 38.9225 61.6845 39.0344 61.6287 39.16C61.5619 39.3143 61.5298 39.4814 61.5345 39.6495V40.6575C61.5298 40.8252 61.5603 40.9919 61.624 41.147C61.6767 41.272 61.7561 41.3839 61.8566 41.4749C61.9514 41.558 62.0633 41.6191 62.1845 41.654C62.3053 41.6895 62.4306 41.7075 62.5565 41.7075C62.7195 41.7026 62.881 41.6756 63.0367 41.6272C63.222 41.5754 63.3906 41.4765 63.5262 41.34L64.0029 41.8807C63.8099 42.0802 63.5701 42.2285 63.3053 42.3121C63.0567 42.3888 62.7981 42.428 62.5379 42.4283C62.2935 42.4317 62.0503 42.3923 61.8194 42.3121C61.6137 42.2401 61.4233 42.1305 61.2578 41.9888C61.0995 41.8519 60.9736 41.6815 60.8892 41.49C60.8008 41.2877 60.7564 41.069 60.759 40.8482V39.5285C60.7557 39.2931 60.8049 39.06 60.9031 38.846C60.9949 38.6478 61.1263 38.4706 61.2892 38.3251C61.4531 38.1801 61.6439 38.0687 61.8508 37.9972C62.0646 37.923 62.2895 37.8857 62.5158 37.8868V37.8868ZM65.4517 41.1424L66.1156 40.1285L67.5969 37.9379H68.3236V42.3818H67.5341V39.1704H67.4911L66.8179 40.2029L65.3436 42.3842H64.6343V37.9403H65.4156V41.1447L65.4517 41.1424ZM72.8849 40.8098C72.8895 41.0472 72.839 41.2825 72.7373 41.497C72.6416 41.6936 72.5039 41.8667 72.3338 42.004C72.1587 42.1439 71.9592 42.2504 71.7455 42.3179C71.5162 42.3911 71.2769 42.4276 71.0362 42.426C70.7925 42.428 70.55 42.3915 70.3177 42.3179C70.1054 42.2519 69.9079 42.1452 69.7363 42.004C69.5708 41.8653 69.4375 41.6923 69.3456 41.497C69.2465 41.2817 69.1972 41.0468 69.2014 40.8098V39.5204C69.1969 39.283 69.2474 39.0478 69.3491 38.8332C69.4444 38.6374 69.579 38.4632 69.7444 38.3216C69.9155 38.1772 70.1129 38.0675 70.3258 37.9984C70.5559 37.9213 70.797 37.882 71.0397 37.8821C71.2912 37.8806 71.5414 37.9198 71.7803 37.9984C71.9932 38.0675 72.1907 38.1772 72.3617 38.3216C72.5256 38.4614 72.6559 38.6363 72.7431 38.8332C72.8363 39.0501 72.8823 39.2844 72.878 39.5204L72.8849 40.8098ZM72.1222 39.6471C72.127 39.4786 72.0932 39.3111 72.0234 39.1576C71.9636 39.0306 71.8762 38.9186 71.7676 38.8297C71.6646 38.7471 71.5459 38.6862 71.4187 38.6507C71.299 38.6157 71.1749 38.5977 71.0502 38.5972C70.9227 38.5974 70.7959 38.6154 70.6734 38.6507C70.5463 38.6862 70.4276 38.7471 70.3246 38.8297C70.216 38.9186 70.1286 39.0306 70.0688 39.1576C69.999 39.3111 69.9652 39.4786 69.97 39.6471V40.6575C69.9654 40.8247 69.9943 40.9911 70.0549 41.147C70.1061 41.2728 70.1857 41.385 70.2874 41.4749C70.3858 41.5599 70.5023 41.6212 70.6281 41.654C70.7658 41.6905 70.9077 41.7085 71.0502 41.7075C71.1749 41.7069 71.299 41.6889 71.4187 41.654C71.5459 41.6184 71.6646 41.5575 71.7676 41.4749C71.8762 41.3861 71.9636 41.274 72.0234 41.147C72.0932 40.9935 72.127 40.8261 72.1222 40.6575V39.6471ZM76.6568 42.376V40.4901H74.536V42.3842H73.7698V37.9403H74.5418V39.789H76.6603V37.9403H77.4416V42.3842L76.6568 42.376ZM81.1181 41.9447C80.8463 42.1071 80.5553 42.2352 80.2519 42.326C80.0542 42.3791 79.8508 42.4076 79.6461 42.4109C79.2684 42.4298 78.8981 42.301 78.6136 42.0516C78.4831 41.9255 78.3811 41.7728 78.3145 41.604C78.2479 41.4351 78.2183 41.2539 78.2276 41.0726C78.2202 40.8541 78.2781 40.6384 78.3939 40.4529C78.5009 40.2891 78.6416 40.15 78.8066 40.0448C78.9695 39.9408 79.1488 39.8649 79.3368 39.8204C79.5026 39.7783 79.6728 39.7557 79.8438 39.7529H81.146V39.4123C81.1596 39.2907 81.1429 39.1676 81.0975 39.054C81.052 38.9404 80.9792 38.8398 80.8856 38.7611C80.6618 38.625 80.4017 38.5609 80.1403 38.5774C79.9487 38.5816 79.7579 38.6042 79.5706 38.6449C79.3194 38.7038 79.0866 38.8236 78.8927 38.9937L78.516 38.4123C78.7711 38.2064 79.0684 38.0592 79.3868 37.981C79.6537 37.9183 79.9266 37.8852 80.2007 37.8821C80.6627 37.8443 81.1221 37.9803 81.489 38.2635C81.6387 38.4182 81.7535 38.6032 81.8259 38.8059C81.8983 39.0086 81.9266 39.2245 81.9088 39.439V42.383H81.2356L81.146 41.9702L81.1181 41.9447ZM81.1449 40.3913H79.967C79.8636 40.3917 79.7602 40.3991 79.6578 40.4134C79.5507 40.4273 79.4464 40.4575 79.3485 40.5029C79.2536 40.5495 79.1732 40.621 79.1159 40.7099C79.0487 40.8189 79.0158 40.9458 79.0218 41.0738C79.0155 41.1665 79.0323 41.2592 79.0707 41.3438C79.109 41.4284 79.1677 41.5022 79.2415 41.5586C79.4063 41.6719 79.6033 41.7286 79.8031 41.7203C79.921 41.7191 80.0382 41.7027 80.1519 41.6714C80.274 41.6403 80.394 41.6015 80.5112 41.5551C80.6282 41.5071 80.7406 41.4548 80.8484 41.3982L81.1437 41.2389L81.1449 40.3913ZM84.1179 38.6228V39.8262C84.1252 40.212 84.0889 40.5973 84.0098 40.975C83.9537 41.2413 83.8535 41.4963 83.7133 41.7296C83.5965 41.9176 83.4422 42.0795 83.2599 42.2051C83.0777 42.3277 82.8828 42.4303 82.6785 42.5109L82.3646 41.8912C82.517 41.8218 82.6639 41.741 82.8041 41.6493C82.9341 41.56 83.0403 41.4403 83.1134 41.3005C83.2054 41.1182 83.2659 40.9216 83.2924 40.7192C83.3361 40.4068 83.3555 40.0915 83.3505 39.7762V37.9403H86.4434V42.3842H85.6713V38.6228H84.1179ZM88.2479 41.1459L88.9118 40.132L90.3931 37.9414H91.1198V42.3853H90.3268V39.1704H90.2803L89.6071 40.2029L88.1363 42.3842H87.427V37.9403H88.2084V41.1447L88.2479 41.1459ZM92.1535 41.3342C92.3135 41.4746 92.5019 41.5789 92.7058 41.64C92.8935 41.7019 93.0895 41.7352 93.2871 41.7389C93.4492 41.7427 93.6109 41.7231 93.7673 41.6807C93.8804 41.6495 93.9868 41.5979 94.0813 41.5284C94.1568 41.4725 94.2171 41.3985 94.2568 41.3133C94.2919 41.2358 94.3101 41.1518 94.3103 41.0668C94.3158 40.9742 94.2973 40.8818 94.2565 40.7985C94.2158 40.7152 94.1542 40.6438 94.0778 40.5913C93.8999 40.4782 93.6919 40.4218 93.4813 40.4296H92.8709V39.7925H93.4987C93.6997 39.8049 93.8981 39.7423 94.0557 39.6169C94.1188 39.5636 94.1692 39.4969 94.2034 39.4217C94.2376 39.3465 94.2546 39.2646 94.2533 39.182C94.2566 39.0921 94.2338 39.0032 94.1876 38.926C94.1413 38.8488 94.0737 38.7867 93.9929 38.7472C93.8099 38.652 93.6061 38.604 93.3999 38.6077C93.2163 38.6092 93.0337 38.635 92.8569 38.6844C92.6652 38.7372 92.4885 38.8339 92.3407 38.9669L91.8651 38.4367C92.0736 38.2398 92.3258 38.0951 92.6011 38.0147C92.8749 37.932 93.1593 37.8897 93.4453 37.8891C93.6751 37.885 93.904 37.9184 94.1231 37.9879C94.3012 38.0445 94.466 38.1362 94.608 38.2577C94.7322 38.3654 94.8317 38.4987 94.8998 38.6484C94.966 38.7965 94.9997 38.957 94.9986 39.1193C94.9982 39.1971 94.9923 39.2748 94.9812 39.3518C94.9676 39.4442 94.939 39.5338 94.8963 39.6169C94.8477 39.7118 94.7841 39.7981 94.708 39.8727C94.6138 39.962 94.5021 40.0309 94.3801 40.075C94.5057 40.1218 94.6213 40.192 94.7208 40.282C94.8054 40.3596 94.8765 40.4507 94.9312 40.5517C94.979 40.6388 95.0139 40.7325 95.0347 40.8296C95.0511 40.9061 95.06 40.984 95.0614 41.0622C95.0635 41.2487 95.0267 41.4336 94.9533 41.6051C94.8801 41.7718 94.7695 41.9194 94.6301 42.0365C94.4716 42.1672 94.2885 42.2648 94.0917 42.3237C93.847 42.3968 93.5925 42.4317 93.3371 42.4272C93.0475 42.4284 92.7591 42.3892 92.4802 42.3109C92.189 42.2266 91.9204 42.078 91.6942 41.8761L92.1535 41.3342ZM99.5239 39.575L99.0391 40.4913L98.3298 41.7482H97.7996L97.2183 40.7017L96.6613 39.6425H96.6253V42.39H95.8439V37.9403H96.559L97.4566 39.6285L98.0705 40.8308L98.7077 39.6367L99.6379 37.9403H100.336V42.3842H99.5542V39.5739L99.5239 39.575ZM104.233 41.1447L104.897 40.1308L106.378 37.9403H107.105V42.3842H106.315V39.1704H106.27L105.597 40.2029L104.125 42.3842H103.419V37.9403H104.2V41.1447H104.233ZM113.677 41.0366C113.676 41.2022 113.646 41.3664 113.587 41.5214C113.527 41.6821 113.437 41.8298 113.322 41.9563C113.199 42.0893 113.049 42.1948 112.882 42.2656C112.688 42.3468 112.478 42.3864 112.267 42.3818H110.104V37.9403H112.249C112.453 37.9355 112.657 37.969 112.85 38.0391C113.007 38.0981 113.149 38.1901 113.267 38.3088C113.376 38.4201 113.46 38.5532 113.514 38.6995C113.568 38.8485 113.595 39.006 113.594 39.1646C113.591 39.3369 113.548 39.5062 113.468 39.6588C113.379 39.8318 113.238 39.9728 113.065 40.0622C113.268 40.1468 113.435 40.3009 113.536 40.4971C113.624 40.6641 113.672 40.8491 113.677 41.0377V41.0366ZM112.895 41.0366C112.9 40.9479 112.883 40.8594 112.847 40.7784C112.81 40.6975 112.754 40.6266 112.685 40.5715C112.552 40.4634 112.385 40.4047 112.214 40.4052H110.885V41.704H112.132C112.342 41.7226 112.55 41.6597 112.714 41.5284C112.776 41.4636 112.825 41.3865 112.856 41.3021C112.887 41.2176 112.9 41.1276 112.895 41.0377V41.0366ZM112.823 39.1693C112.829 39.0866 112.812 39.004 112.774 38.9304C112.736 38.8567 112.679 38.795 112.608 38.7518C112.465 38.6651 112.3 38.62 112.132 38.6216H110.885V39.7169H112.178C112.346 39.7257 112.512 39.6764 112.649 39.5774C112.708 39.5281 112.755 39.4655 112.785 39.3948C112.816 39.3241 112.829 39.2473 112.824 39.1704L112.823 39.1693ZM118.418 42.3842V37.9403H119.163V42.3842H118.418ZM117.214 41.0063C117.212 40.833 117.145 40.6666 117.025 40.5413C116.943 40.4642 116.845 40.4055 116.738 40.3692C116.631 40.3329 116.518 40.3198 116.405 40.3308H115.243V41.704H116.405C116.619 41.7173 116.83 41.6551 117.002 41.5284C117.075 41.4637 117.132 41.3828 117.169 41.2922C117.206 41.2017 117.221 41.1038 117.214 41.0063V41.0063ZM115.257 39.6634H116.432C116.659 39.6597 116.885 39.6947 117.101 39.7669C117.28 39.8267 117.445 39.9229 117.586 40.0494C117.714 40.168 117.813 40.3138 117.877 40.4761C117.944 40.6461 117.978 40.8272 117.976 41.0098C117.984 41.1948 117.952 41.3793 117.883 41.5511C117.814 41.7229 117.71 41.878 117.576 42.0063C117.255 42.2767 116.842 42.4117 116.423 42.383H114.485V37.9298H115.257V39.6634ZM121.79 37.8868C122.055 37.8878 122.319 37.9226 122.576 37.9903C122.852 38.0651 123.101 38.2196 123.29 38.4344L122.832 39.0158C122.679 38.8561 122.489 38.7363 122.279 38.667C122.132 38.6253 121.979 38.6027 121.826 38.5995C121.708 38.6009 121.59 38.6189 121.477 38.653C121.355 38.6885 121.242 38.7495 121.145 38.8321C121.041 38.9225 120.959 39.0344 120.903 39.16C120.836 39.3143 120.804 39.4814 120.809 39.6495V40.6575C120.804 40.8252 120.834 40.9919 120.898 41.147C120.951 41.272 121.03 41.3839 121.131 41.4749C121.226 41.558 121.337 41.6191 121.459 41.654C121.579 41.6895 121.705 41.7075 121.831 41.7075C121.994 41.7026 122.155 41.6756 122.311 41.6272C122.496 41.5754 122.665 41.4765 122.8 41.34L123.276 41.8784C123.083 42.0779 122.843 42.2262 122.578 42.3098C122.33 42.3865 122.071 42.4257 121.811 42.426C121.566 42.4293 121.323 42.39 121.092 42.3098C120.887 42.2378 120.696 42.1282 120.531 41.9865C120.373 41.8495 120.247 41.6792 120.162 41.4877C120.074 41.2854 120.029 41.0666 120.032 40.8459V39.5285C120.029 39.2931 120.078 39.06 120.176 38.846C120.268 38.6478 120.399 38.4705 120.562 38.3251C120.726 38.1801 120.917 38.0687 121.124 37.9972C121.338 37.9229 121.563 37.8855 121.79 37.8868V37.8868ZM127.571 40.8133C127.576 41.0507 127.525 41.286 127.423 41.5005C127.328 41.6971 127.19 41.8701 127.02 42.0074C126.845 42.1474 126.645 42.2538 126.432 42.3214C126.202 42.3945 125.963 42.431 125.722 42.4295C125.479 42.4315 125.236 42.395 125.004 42.3214C124.791 42.2553 124.594 42.1487 124.422 42.0074C124.257 41.8688 124.124 41.6958 124.032 41.5005C123.933 41.2852 123.883 41.0503 123.888 40.8133V39.5204C123.883 39.283 123.933 39.0478 124.035 38.8332C124.13 38.6374 124.265 38.4632 124.43 38.3216C124.602 38.1772 124.799 38.0675 125.012 37.9984C125.242 37.9213 125.483 37.882 125.726 37.8821C125.977 37.8806 126.227 37.9198 126.466 37.9984C126.679 38.0675 126.877 38.1772 127.048 38.3216C127.212 38.4614 127.342 38.6363 127.429 38.8332C127.522 39.0501 127.568 39.2844 127.564 39.5204L127.571 40.8133ZM126.808 39.6506C126.813 39.482 126.779 39.3146 126.709 39.1611C126.65 39.0341 126.562 38.9221 126.454 38.8332C126.351 38.7506 126.232 38.6897 126.105 38.6542C125.985 38.6192 125.861 38.6012 125.736 38.6007C125.609 38.6009 125.482 38.6189 125.36 38.6542C125.232 38.6897 125.114 38.7506 125.011 38.8332C124.902 38.9221 124.815 39.0341 124.755 39.1611C124.685 39.3146 124.651 39.482 124.656 39.6506V40.6575C124.652 40.8247 124.68 40.9911 124.741 41.147C124.792 41.2728 124.872 41.385 124.973 41.4749C125.072 41.5599 125.188 41.6212 125.314 41.654C125.452 41.6905 125.594 41.7085 125.736 41.7075C125.861 41.7069 125.985 41.6889 126.105 41.654C126.232 41.6184 126.351 41.5575 126.454 41.4749C126.562 41.3861 126.65 41.274 126.709 41.147C126.779 40.9935 126.813 40.8261 126.808 40.6575V39.6506ZM128.442 42.3795V37.9263H129.205V39.8204H129.959C130.043 39.8202 130.127 39.8155 130.21 39.8064C130.292 39.7976 130.372 39.7715 130.443 39.7297C130.521 39.6819 130.59 39.6196 130.645 39.546C130.719 39.4436 130.775 39.3296 130.811 39.2088L131.243 37.9298H132.032L131.593 39.2227C131.532 39.4144 131.446 39.597 131.337 39.7657C131.244 39.9086 131.102 40.0125 130.937 40.0576C131.029 40.0753 131.117 40.112 131.194 40.1652C131.271 40.2184 131.336 40.2871 131.386 40.3669C131.491 40.5466 131.575 40.7377 131.637 40.9366L132.113 42.3818H131.304L130.918 41.1517C130.881 41.0292 130.828 40.912 130.761 40.8029C130.712 40.7238 130.646 40.6563 130.568 40.6052C130.497 40.5607 130.418 40.5303 130.336 40.5157C130.244 40.5002 130.151 40.4928 130.058 40.4936H129.206V42.3784L128.442 42.3795ZM133.603 41.1412L134.267 40.1273L135.748 37.9368H136.475V42.3807H135.686V39.1704H135.64L134.967 40.2029L133.499 42.3842H132.789V37.9403H133.571V41.1447L133.603 41.1412ZM138.119 40.4436V40.7401C138.114 40.8961 138.145 41.0511 138.209 41.1935C138.266 41.3133 138.35 41.418 138.455 41.4993C138.562 41.5813 138.684 41.6411 138.814 41.6749C138.951 41.7109 139.091 41.7289 139.232 41.7284C139.409 41.7239 139.584 41.6938 139.753 41.6389C139.969 41.5683 140.165 41.449 140.327 41.29L140.812 41.8202C140.604 42.0416 140.343 42.2068 140.054 42.3004C139.782 42.3862 139.499 42.4301 139.214 42.4307C138.971 42.4318 138.729 42.3969 138.496 42.3272C138.28 42.2638 138.077 42.16 137.899 42.0214C137.728 41.8854 137.59 41.712 137.496 41.5145C137.393 41.2924 137.343 41.0498 137.348 40.8052V39.6274C137.347 39.3826 137.394 39.1399 137.487 38.9135C137.57 38.7066 137.697 38.5199 137.859 38.3658C138.021 38.2123 138.214 38.0936 138.424 38.017C138.656 37.9355 138.901 37.8962 139.147 37.9007C139.394 37.898 139.64 37.9373 139.874 38.017C140.084 38.0885 140.278 38.2016 140.443 38.3495C140.604 38.4953 140.73 38.6748 140.812 38.8751C140.902 39.0965 140.946 39.3338 140.942 39.5727V40.4529L138.119 40.4436ZM140.161 39.646C140.165 39.4838 140.138 39.3223 140.081 39.1704C140.032 39.0465 139.957 38.9346 139.861 38.8425C139.769 38.7562 139.658 38.6918 139.538 38.6542C139.411 38.6147 139.279 38.5951 139.147 38.596C139.016 38.595 138.885 38.6162 138.761 38.6588C138.642 38.7002 138.532 38.7642 138.438 38.8472C138.339 38.9346 138.263 39.0437 138.213 39.1658C138.157 39.3101 138.129 39.4642 138.133 39.6192V39.8169H140.161V39.646ZM145.691 38.6228V42.3842H144.892V38.6228H143.516V37.931H147.071V38.6228H145.691ZM148.357 40.4448V40.7412C148.352 40.8972 148.383 41.0523 148.446 41.1947C148.504 41.3145 148.588 41.4192 148.693 41.5005C148.8 41.5825 148.922 41.6422 149.052 41.6761C149.188 41.712 149.329 41.73 149.47 41.7296C149.647 41.7251 149.822 41.6949 149.991 41.64C150.206 41.5695 150.403 41.4501 150.565 41.2912L151.05 41.8214C150.841 42.0428 150.581 42.2079 150.292 42.3016C150.02 42.3874 149.737 42.4313 149.452 42.4318C149.209 42.433 148.967 42.3981 148.734 42.3284C148.517 42.2649 148.315 42.1612 148.137 42.0226C147.966 41.8866 147.828 41.7132 147.734 41.5156C147.631 41.2935 147.581 41.0509 147.586 40.8064V39.6274C147.583 39.383 147.628 39.1403 147.719 38.9135C147.802 38.7066 147.929 38.5199 148.091 38.3658C148.253 38.2123 148.446 38.0936 148.656 38.017C148.888 37.9355 149.133 37.8962 149.379 37.9007C149.626 37.898 149.872 37.9373 150.106 38.017C150.316 38.0885 150.51 38.2016 150.675 38.3495C150.836 38.4953 150.961 38.6748 151.044 38.8751C151.134 39.0965 151.178 39.3338 151.174 39.5727V40.4529L148.357 40.4448ZM150.393 39.646C150.397 39.4838 150.37 39.3223 150.313 39.1704C150.264 39.0465 150.189 38.9346 150.093 38.8425C150.001 38.7562 149.89 38.6918 149.77 38.6542C149.643 38.6147 149.511 38.5951 149.379 38.596C149.248 38.595 149.117 38.6162 148.993 38.6588C148.874 38.7002 148.764 38.7641 148.67 38.8472C148.571 38.9346 148.494 39.0437 148.445 39.1658C148.389 39.3101 148.361 39.4642 148.365 39.6192V39.8169H150.393V39.646ZM154.415 42.3842L153.416 40.7145L152.393 42.3842H151.486L152.997 40.1041L151.579 37.9321H152.509L153.439 39.4855L154.382 37.9321H155.298L153.862 40.0866L155.361 42.3853L154.415 42.3842ZM158.741 42.3842V40.4901H156.623V42.3842H155.851V37.9403H156.623V39.789H158.741V37.9403H159.522V42.3842H158.741ZM164.083 40.8133C164.087 41.0507 164.037 41.286 163.935 41.5005C163.839 41.6971 163.702 41.8701 163.531 42.0074C163.356 42.1474 163.157 42.2538 162.943 42.3214C162.714 42.3945 162.475 42.431 162.234 42.4295C161.99 42.4315 161.748 42.395 161.515 42.3214C161.303 42.2553 161.106 42.1487 160.934 42.0074C160.769 41.8688 160.635 41.6958 160.543 41.5005C160.444 41.2852 160.395 41.0503 160.399 40.8133V39.5204C160.395 39.283 160.445 39.0478 160.547 38.8332C160.642 38.6374 160.777 38.4632 160.942 38.3216C161.113 38.1772 161.311 38.0675 161.523 37.9984C161.754 37.9213 161.995 37.882 162.237 37.8821C162.489 37.8806 162.739 37.9198 162.978 37.9984C163.191 38.0675 163.388 38.1772 163.559 38.3216C163.723 38.4614 163.854 38.6363 163.941 38.8332C164.034 39.0501 164.08 39.2844 164.076 39.5204L164.083 40.8133ZM163.32 39.6506C163.325 39.482 163.291 39.3146 163.221 39.1611C163.161 39.0341 163.074 38.9221 162.965 38.8332C162.862 38.7506 162.744 38.6897 162.616 38.6542C162.497 38.6192 162.373 38.6012 162.248 38.6007C162.12 38.6009 161.994 38.6189 161.871 38.6542C161.744 38.6898 161.625 38.7507 161.522 38.8332C161.414 38.9221 161.326 39.0341 161.267 39.1611C161.197 39.3146 161.163 39.482 161.168 39.6506V40.6575C161.163 40.8247 161.192 40.9911 161.253 41.147C161.304 41.2728 161.383 41.385 161.485 41.4749C161.583 41.5599 161.7 41.6212 161.826 41.654C161.963 41.6905 162.105 41.7085 162.248 41.7075C162.373 41.7069 162.497 41.6889 162.616 41.654C162.744 41.6184 162.862 41.5575 162.965 41.4749C163.074 41.3861 163.161 41.274 163.221 41.147C163.291 40.9935 163.325 40.8261 163.32 40.6575V39.6506ZM166.282 38.6181V39.8215C166.29 40.2073 166.253 40.5927 166.174 40.9703C166.118 41.2366 166.018 41.4916 165.878 41.7249C165.761 41.913 165.607 42.0749 165.424 42.2005C165.242 42.3231 165.047 42.4256 164.843 42.5062L164.529 41.8865C164.682 41.8172 164.828 41.7363 164.969 41.6447C165.099 41.5554 165.205 41.4356 165.278 41.2959C165.37 41.1136 165.43 40.917 165.457 40.7145C165.501 40.4022 165.52 40.0869 165.515 39.7715V37.9403H168.603V42.3842H167.834V38.6228L166.282 38.6181ZM173.259 40.8087C173.263 41.0461 173.213 41.2813 173.111 41.4958C173.015 41.6924 172.878 41.8655 172.708 42.0028C172.533 42.1428 172.333 42.2492 172.119 42.3167C171.89 42.3899 171.651 42.4264 171.41 42.4249C171.166 42.4269 170.924 42.3904 170.692 42.3167C170.479 42.2507 170.282 42.1441 170.11 42.0028C169.945 41.8641 169.811 41.6912 169.719 41.4958C169.62 41.2806 169.571 41.0457 169.575 40.8087V39.5204C169.571 39.283 169.621 39.0478 169.723 38.8332C169.818 38.6374 169.953 38.4632 170.118 38.3216C170.289 38.1772 170.487 38.0675 170.7 37.9984C170.93 37.9213 171.171 37.882 171.414 37.8821C171.665 37.8806 171.915 37.9198 172.154 37.9984C172.367 38.0675 172.565 38.1772 172.736 38.3216C172.899 38.4614 173.03 38.6363 173.117 38.8332C173.21 39.0501 173.256 39.2844 173.252 39.5204L173.259 40.8087ZM172.496 39.646C172.501 39.4774 172.467 39.31 172.397 39.1565C172.337 39.0295 172.25 38.9174 172.141 38.8286C172.038 38.746 171.92 38.6851 171.793 38.6495C171.673 38.6146 171.549 38.5966 171.424 38.596C171.297 38.5962 171.17 38.6142 171.047 38.6495C170.92 38.6851 170.801 38.746 170.698 38.8286C170.59 38.9174 170.502 39.0295 170.443 39.1565C170.373 39.31 170.339 39.4774 170.344 39.646V40.6575C170.339 40.8247 170.368 40.9911 170.429 41.147C170.48 41.2727 170.56 41.3849 170.661 41.4749C170.76 41.5599 170.876 41.6212 171.002 41.654C171.14 41.6905 171.282 41.7085 171.424 41.7075C171.549 41.7069 171.673 41.6889 171.793 41.654C171.918 41.6166 172.035 41.5546 172.136 41.4714C172.244 41.3826 172.332 41.2706 172.391 41.1435C172.461 40.99 172.495 40.8226 172.49 40.654L172.496 39.646ZM174.875 38.6135V42.3749H174.094V37.9217H177.262V38.6135H174.875ZM178.538 41.1366L179.201 40.1227L180.683 37.9321H181.409V42.376H180.623V39.1704H180.578L179.905 40.2029L178.433 42.3842H177.724V37.9403H178.505V41.1447L178.538 41.1366ZM183.124 41.1366L183.788 40.1227L185.274 37.9403H186.001V42.3842H185.212V39.1704H185.158L184.485 40.2029L183.013 42.3842H182.304V37.9403H183.085V41.1447L183.124 41.1366Z" fill="black"/>
</svg>
